<?xml version="1.0" standalone="no"?>
<!DOCTYPE svg PUBLIC "-//W3C//DTD SVG 20010904//EN"
 "http://www.w3.org/TR/2001/REC-SVG-20010904/DTD/svg10.dtd">
<svg version="1.0" xmlns="http://www.w3.org/2000/svg"
 width="1000.000000pt" height="1000.000000pt" viewBox="0 0 1000.000000 1000.000000"
 preserveAspectRatio="xMidYMid meet">
<metadata>
Created by potrace 1.11, written by Peter Selinger 2001-2013
</metadata>
<g transform="translate(0.000000,1000.000000) scale(0.100000,-0.100000)"
fill="#000000" stroke="none">
<path d="M5374 8784 c-4 -14 -15 -42 -25 -62 l-18 -37 -1 30 -1 30 -13 -30
c-7 -16 -11 -33 -9 -37 2 -5 -3 -8 -11 -8 -10 0 -13 -6 -9 -17 4 -11 3 -14 -5
-9 -7 4 -12 2 -12 -3 0 -25 -20 -9 -21 17 l-1 27 -7 -30 c-4 -17 -13 -40 -19
-50 -11 -18 -12 -17 -8 8 4 25 3 27 -11 15 -15 -12 -16 -10 -10 17 7 28 6 29
-8 11 -16 -21 -19 -16 -16 34 l1 25 -15 -25 -16 -25 4 29 5 30 -19 -25 c-17
-22 -19 -23 -20 -4 0 12 -6 3 -14 -20 -11 -33 -21 -41 -16 -12 2 13 -16 8 -29
-8 -7 -9 -20 -13 -27 -11 -10 4 -13 1 -9 -12 8 -26 -10 -50 -26 -34 -20 20
-23 14 -20 -33 3 -33 0 -45 -9 -45 -22 0 -34 13 -33 35 0 33 -18 79 -26 65 -5
-9 -10 -6 -15 9 -4 13 -9 20 -12 17 -4 -3 -12 -1 -18 4 -9 8 -11 4 -7 -15 2
-14 0 -25 -6 -25 -15 0 -24 33 -18 64 3 15 1 24 -5 21 -5 -4 -9 0 -10 7 0 7
-5 2 -11 -12 -6 -14 -10 -28 -10 -32 5 -21 -16 -3 -37 32 -29 46 -38 45 -22
-1 15 -45 14 -74 -5 -90 -15 -12 -16 -11 -9 11 l8 25 -22 -19 c-18 -17 -21
-17 -15 -3 3 10 1 17 -5 17 -6 0 -16 -20 -22 -45 -7 -26 -17 -45 -25 -45 -17
0 -102 39 -109 50 -3 5 -17 5 -33 1 -23 -6 -31 -3 -53 26 -22 26 -28 30 -33
17 -3 -9 -3 -21 1 -27 3 -7 -9 2 -27 18 -26 24 -30 26 -21 8 17 -32 14 -35
-16 -16 -27 16 -27 16 -11 -1 13 -15 14 -24 6 -47 -12 -36 -25 -37 -38 -3 -6
14 -14 22 -20 19 -6 -4 -9 21 -9 65 1 68 -10 115 -12 54 -1 -16 -2 -33 -4 -39
-1 -5 -3 -20 -3 -33 -1 -13 -6 -21 -11 -17 -5 3 -12 -3 -14 -12 -2 -10 -3 -5
-2 11 2 27 1 28 -12 11 -13 -18 -13 -18 -28 1 -14 18 -14 18 -15 -9 0 -16 -4
-26 -10 -22 -5 3 -10 2 -10 -4 0 -6 -6 -8 -12 -6 -10 4 -13 -10 -13 -52 0 -57
0 -58 -28 -56 -24 2 -27 0 -17 -12 19 -23 -29 -41 -61 -24 -13 7 -30 13 -37
14 -7 0 -28 20 -47 44 -35 43 -49 46 -19 3 8 -12 11 -22 7 -22 -17 0 -33 24
-34 49 l-1 26 -8 -25 -8 -25 -1 24 c-1 24 -1 24 -20 5 -11 -11 -15 -23 -10
-28 5 -6 9 -19 9 -30 0 -15 -7 -9 -26 22 -31 52 -40 50 -18 -4 l16 -39 -21 23
c-12 12 -23 22 -25 22 -2 0 3 -18 10 -41 12 -35 12 -42 0 -55 -14 -13 -16 -11
-25 18 -5 18 -10 25 -10 16 -1 -10 -8 -18 -16 -18 -18 0 -19 -11 -2 -29 8 -9
8 -12 0 -7 -6 3 -19 -2 -29 -11 -11 -11 -13 -18 -5 -21 22 -7 11 -29 -14 -27
-29 4 -31 -2 -9 -34 l16 -23 -53 6 c-52 6 -72 17 -117 66 -13 14 -21 19 -17
13 7 -14 -17 -18 -29 -6 -4 4 -19 8 -34 10 -26 3 -26 2 8 -17 19 -12 26 -19
15 -16 -11 2 -36 7 -55 10 l-35 6 30 -15 c17 -8 35 -14 40 -15 6 0 23 -11 38
-25 l29 -24 -29 2 c-22 2 -27 -2 -25 -15 2 -11 -3 -18 -13 -18 -8 0 -15 5 -15
11 0 5 -5 7 -11 4 -6 -4 -8 -13 -5 -21 3 -8 -1 -14 -10 -14 -8 0 -13 4 -9 9 3
5 0 13 -6 17 -8 5 -9 3 -4 -6 6 -10 1 -12 -26 -7 l-34 7 30 -26 c29 -24 30
-25 10 -40 -11 -8 -26 -11 -35 -8 -8 4 -40 8 -70 10 l-55 3 37 -12 c50 -16 61
-31 18 -23 -27 5 -31 4 -18 -4 16 -10 16 -12 0 -28 -11 -12 -20 -14 -24 -8 -5
7 -8 4 -8 -6 0 -21 -16 -24 -23 -5 -3 7 -6 4 -6 -6 -1 -10 -6 -15 -11 -12 -6
4 -10 3 -9 -2 5 -29 -5 -33 -16 -8 l-14 30 -1 -32 c0 -18 -5 -33 -11 -33 -7 0
-9 -10 -7 -25 3 -13 1 -22 -3 -19 -5 3 -9 -4 -9 -15 0 -27 -17 -35 -29 -14 -6
10 -11 13 -11 8 0 -6 7 -20 15 -32 8 -12 11 -23 5 -25 -5 -2 -10 -18 -12 -35
-3 -38 -6 -40 -24 -15 -7 9 -17 18 -23 18 -6 1 -17 2 -24 3 -7 0 -23 10 -35
21 -29 27 -28 17 2 -23 13 -18 26 -43 29 -57 l6 -25 -23 28 c-20 25 -23 26
-21 7 1 -11 7 -26 13 -32 16 -16 15 -31 0 -22 -8 5 -7 0 2 -11 10 -13 11 -16
2 -11 -10 6 -13 2 -10 -15 2 -15 -2 -23 -9 -22 -9 2 -10 -4 -3 -23 14 -37 13
-61 -2 -46 -17 17 -29 15 -26 -5 2 -13 -3 -17 -18 -16 -14 2 -21 -3 -21 -15 0
-41 -4 -52 -18 -52 -11 0 -14 -7 -11 -25 3 -14 0 -25 -5 -25 -5 0 -9 -7 -9
-15 0 -8 -6 -14 -12 -13 -7 2 -11 -4 -9 -12 2 -8 6 -33 8 -55 l5 -41 -43 -3
c-24 -1 -48 -7 -54 -13 -7 -8 -5 -9 7 -5 21 7 34 -11 19 -26 -15 -15 -14 -30
2 -21 7 4 9 3 4 -2 -5 -5 -12 -9 -16 -9 -12 0 -80 -73 -73 -79 3 -3 -3 -6 -14
-7 -13 0 -15 -2 -5 -6 10 -4 8 -9 -9 -18 -28 -15 -38 -50 -12 -41 9 4 3 -6
-13 -21 -17 -16 -26 -25 -21 -20 6 4 17 7 25 7 10 0 8 -7 -9 -25 -13 -14 -25
-32 -26 -41 -2 -14 -1 -14 15 0 10 9 24 15 32 13 8 -2 11 -2 6 0 -4 3 -4 9 -1
15 12 19 23 -15 12 -36 -9 -17 -8 -19 3 -8 7 6 24 12 39 12 38 -1 4 -18 -49
-24 -63 -8 -63 -16 0 -16 38 0 50 -3 39 -10 -10 -6 -11 -10 -2 -10 6 0 12 -8
12 -17 0 -15 -2 -16 -10 -3 -7 11 -10 11 -10 2 0 -8 -5 -10 -12 -5 -17 10 -88
10 -81 1 2 -5 10 -8 17 -8 16 0 58 -44 50 -53 -3 -3 -13 -3 -22 0 -10 4 -14 3
-10 -2 4 -4 3 -14 -3 -22 -9 -10 -8 -13 3 -13 8 0 23 -7 34 -16 10 -8 13 -13
7 -9 -8 4 -13 0 -13 -10 0 -12 -6 -15 -19 -10 -11 3 -22 1 -25 -4 -4 -6 -13
-8 -21 -4 -8 3 -15 3 -15 -1 0 -3 18 -10 41 -16 28 -8 39 -15 35 -25 -3 -8 3
-19 12 -24 16 -10 16 -10 -1 -11 -10 0 -15 -5 -12 -11 4 -6 14 -8 23 -4 13 5
12 2 -3 -15 -14 -15 -15 -20 -4 -21 8 0 5 -4 -6 -8 -17 -7 -16 -9 13 -15 17
-4 32 -11 32 -16 0 -4 8 -10 19 -13 14 -3 17 -11 14 -31 -5 -23 -10 -26 -46
-26 -47 0 -46 -8 1 -12 l32 -2 -33 -31 c-17 -17 -39 -30 -47 -29 -25 2 -35 -9
-14 -17 15 -6 11 -8 -16 -9 l-35 -2 38 -11 c23 -7 35 -16 30 -21 -5 -6 -2 -6
6 -1 21 12 71 14 64 2 -4 -6 0 -8 9 -4 25 9 31 -6 7 -18 -19 -11 -20 -13 -4
-28 21 -22 12 -22 -23 0 l-27 17 19 -22 c22 -25 22 -25 -23 -12 l-34 10 24
-23 c13 -12 28 -21 33 -19 4 2 6 -4 3 -11 -4 -11 0 -13 14 -10 25 7 24 -9 -1
-25 -21 -13 -27 -32 -9 -32 5 0 8 4 5 8 -3 5 2 9 11 9 12 0 11 -5 -7 -19 -20
-16 -20 -18 -4 -18 16 0 17 -2 4 -10 -8 -5 -11 -10 -6 -10 5 0 -8 -16 -30 -35
l-39 -36 34 20 c24 14 40 17 51 11 10 -5 20 -6 24 -3 3 3 6 3 6 0 0 -4 -15
-14 -32 -22 -33 -14 -33 -14 -4 -8 l29 6 -29 -38 c-27 -35 -27 -37 -6 -31 12
4 30 3 39 -3 16 -9 16 -10 -4 -11 -15 0 -21 -5 -17 -14 3 -8 17 -14 32 -13 17
1 26 -3 25 -10 -4 -16 2 -16 27 -3 23 12 76 -5 84 -27 4 -9 1 -22 -6 -30 -10
-12 -9 -18 7 -30 15 -11 16 -17 7 -20 -10 -4 -8 -9 5 -20 17 -14 17 -14 -4
-10 -13 3 -25 1 -28 -3 -3 -5 8 -11 25 -15 16 -4 30 -10 30 -15 0 -4 9 -6 20
-3 16 4 19 2 14 -11 -5 -12 -2 -15 9 -10 27 10 116 -64 117 -97 0 -9 -21 -28
-47 -42 l-48 -27 37 4 c24 3 41 -1 49 -10 9 -12 6 -14 -20 -14 -17 0 -31 -3
-31 -6 0 -8 52 -48 65 -50 5 0 19 -2 29 -2 19 -2 19 -3 -2 -22 -12 -11 -26
-20 -32 -20 -5 0 -10 -5 -10 -10 0 -7 13 -8 36 -4 l36 7 -36 -38 c-54 -55 -50
-55 29 -5 33 20 60 26 50 10 -3 -5 3 -10 14 -10 25 0 26 -8 6 -37 -17 -24 -5
-26 33 -4 28 15 39 9 17 -9 -21 -17 -19 -33 2 -21 24 13 62 -4 99 -46 30 -33
36 -36 94 -37 34 -1 64 -7 68 -13 4 -5 18 -16 30 -22 13 -7 22 -15 19 -17 -10
-10 48 -57 73 -60 14 -1 31 -2 38 -3 6 -1 12 -10 12 -20 0 -11 11 -29 25 -40
26 -19 41 -20 79 -5 15 6 18 4 13 -8 -3 -9 1 -26 10 -38 12 -17 22 -21 44 -16
26 5 29 3 29 -20 0 -22 2 -23 21 -14 15 8 24 8 34 0 8 -7 19 -9 25 -5 13 8 13
-11 0 -36 -7 -13 -7 -19 0 -19 5 0 10 4 10 9 0 10 32 9 40 -1 5 -6 36 -15 63
-17 5 -1 6 -5 2 -10 -3 -6 4 -8 15 -6 11 2 20 -1 20 -8 0 -8 19 -11 60 -10 52
1 60 -1 58 -15 -2 -12 3 -16 20 -15 12 2 22 -2 22 -7 0 -6 -7 -10 -16 -10 -8
0 -12 -4 -9 -10 3 -5 19 -8 35 -6 20 2 30 -1 30 -10 0 -16 16 -19 25 -4 3 6
12 10 18 9 9 0 9 -2 0 -6 -7 -2 -13 -9 -13 -14 0 -4 7 -6 15 -3 8 4 22 1 30
-6 10 -8 15 -9 15 -2 0 6 10 9 23 6 79 -17 117 5 52 29 -5 3 -6 8 -2 13 4 4
16 4 25 -2 9 -6 27 -10 39 -9 12 1 20 -2 17 -7 -3 -4 2 -8 11 -8 12 0 15 -5
11 -16 -4 -12 -2 -15 9 -10 12 4 14 0 11 -21 -3 -14 -11 -31 -18 -36 -9 -6 -8
-7 5 -3 20 6 22 -4 5 -24 -7 -7 4 -4 24 8 32 18 37 18 42 5 6 -14 8 -14 24 1
10 9 26 16 35 16 9 0 18 4 21 8 3 5 31 7 63 6 92 -3 89 -2 67 -19 -18 -14 -17
-15 11 -9 17 3 36 7 43 10 6 2 12 0 12 -4 0 -5 -6 -14 -12 -21 -11 -10 -6 -11
22 -5 50 9 51 9 93 0 32 -7 37 -11 31 -30 -6 -20 -5 -20 8 -2 22 28 87 13 146
-33 59 -46 78 -58 68 -43 -5 8 3 12 24 12 21 0 29 -4 24 -12 -5 -7 -2 -9 9 -5
21 8 40 -16 25 -31 -18 -18 42 -16 69 3 19 14 21 12 38 -30 9 -25 21 -47 26
-50 5 -4 4 6 -2 22 l-10 28 24 -23 c18 -17 26 -20 29 -10 4 11 8 11 21 -1 12
-9 17 -10 17 -2 0 8 5 9 19 1 34 -18 37 -10 6 16 -21 17 -24 23 -10 18 11 -4
26 -12 34 -18 17 -14 15 -14 34 3 15 12 17 11 17 -8 0 -11 6 -21 14 -21 8 0
23 -10 33 -22 10 -13 35 -37 55 -55 20 -17 34 -34 31 -37 -4 -3 -1 -6 5 -6 7
0 12 7 12 15 0 27 39 17 46 -12 6 -23 8 -24 19 -10 18 25 26 20 15 -8 -9 -24
-8 -25 10 -15 28 15 36 7 34 -32 -1 -28 2 -34 19 -35 11 -1 25 -7 31 -14 8 -9
8 -10 -1 -5 -18 10 -16 -9 1 -23 11 -9 18 -8 30 4 15 15 16 15 16 -3 0 -11 6
-22 13 -25 9 -3 9 -7 -2 -20 -7 -10 -10 -17 -6 -17 4 0 2 -7 -5 -15 -15 -18 1
-20 19 -2 10 10 11 9 6 -5 -4 -10 -12 -18 -18 -18 -6 0 -8 -2 -5 -5 3 -3 19 2
36 12 32 18 58 10 32 -10 -18 -14 -44 -47 -38 -47 3 0 18 11 34 25 l29 25 13
-32 c12 -29 12 -37 -4 -65 -9 -18 -14 -36 -11 -40 4 -3 7 0 7 7 0 10 3 11 11
3 8 -8 8 -17 0 -31 -14 -26 -14 -35 -1 -27 14 9 12 -9 -2 -24 -11 -10 -10 -12
1 -9 8 2 15 -7 17 -22 2 -14 5 -34 7 -45 5 -28 -19 -126 -33 -135 -6 -4 -11
-11 -11 -16 1 -20 -25 -65 -41 -70 -9 -3 -15 -11 -12 -19 7 -17 -29 -37 -50
-29 -12 5 -15 2 -10 -10 5 -12 2 -15 -12 -9 -12 4 -15 3 -10 -5 4 -7 2 -20 -3
-29 -6 -10 -11 -14 -11 -9 0 5 -9 1 -20 -9 -11 -10 -17 -22 -14 -26 8 -13 -10
-11 -25 4 -11 10 -13 9 -8 -5 4 -10 2 -18 -3 -18 -6 0 -10 5 -10 10 0 6 -5 10
-10 10 -7 0 -7 -6 -1 -19 6 -10 7 -22 3 -26 -4 -3 -7 -12 -7 -18 0 -7 -8 -11
-17 -11 -10 1 -17 -1 -16 -5 2 -21 -4 -31 -22 -31 -11 0 -20 -7 -20 -15 0 -8
-3 -14 -7 -14 -5 1 -21 1 -38 0 -23 -1 -27 -3 -15 -11 13 -8 12 -10 -2 -10
-10 0 -19 1 -21 3 -2 1 -11 -6 -20 -15 -10 -9 -26 -15 -37 -13 -11 2 -20 0
-20 -5 0 -5 -7 -7 -15 -4 -8 4 -22 1 -30 -6 -8 -6 -19 -9 -25 -5 -6 4 -24 1
-41 -5 -24 -11 -33 -10 -56 6 -25 15 -26 16 -14 1 8 -10 11 -20 8 -23 -13 -13
-73 -11 -106 2 -30 12 -32 12 -21 -1 17 -21 14 -22 -50 -26 -30 -2 -58 -8 -62
-14 -4 -6 -13 -2 -22 10 -9 11 -16 15 -16 8 0 -7 -6 -10 -14 -7 -8 3 -17 1
-20 -4 -3 -5 -26 -6 -53 -2 -26 5 -52 4 -58 0 -5 -4 -24 -10 -42 -13 -23 -5
-33 -2 -37 9 -3 8 -10 12 -16 9 -5 -3 -10 -3 -10 2 0 4 -26 9 -58 9 -53 2
-121 9 -167 18 -11 3 -22 5 -24 5 -3 1 4 8 15 16 18 15 18 15 -8 9 -27 -6 -28
-4 -29 32 l-1 39 -10 -32 c-10 -31 -38 -47 -38 -21 0 6 -3 9 -6 5 -3 -3 -30 5
-60 18 -37 17 -56 20 -61 13 -4 -8 -9 -5 -13 8 -4 11 -17 19 -31 20 -36 1 -66
13 -73 29 -3 8 -11 15 -17 15 -20 0 -39 33 -27 47 8 10 5 13 -11 13 -12 0 -21
6 -21 16 0 8 -5 12 -11 8 -14 -9 -59 16 -59 33 0 7 -4 13 -10 13 -5 0 -10 6
-10 14 0 8 -7 16 -14 19 -8 3 -18 22 -21 41 -5 24 -11 33 -21 29 -10 -3 -12 0
-9 10 4 9 -1 16 -14 20 -21 5 -30 27 -11 27 5 0 7 7 4 15 -4 8 -2 15 4 15 5 0
12 7 16 15 5 13 2 14 -15 4 -17 -9 -20 -8 -13 3 5 7 9 23 10 35 0 12 7 30 15
40 11 14 9 14 -10 -2 l-24 -20 7 25 c6 21 5 22 -4 8 -6 -10 -18 -18 -27 -18
-13 0 -14 3 -5 12 19 19 14 27 -13 22 -20 -3 -26 1 -31 21 -3 14 -4 32 -1 40
4 8 1 17 -4 21 -6 3 -9 18 -6 33 2 14 1 37 -3 51 -5 15 -8 18 -9 8 -1 -10 -9
-16 -20 -15 -11 0 -17 5 -15 9 3 5 11 6 17 3 7 -3 2 1 -9 10 -25 18 -22 55 5
56 11 0 8 3 -7 9 -19 8 -21 13 -12 30 8 16 8 20 -2 18 -7 -2 -16 -7 -20 -13
-4 -6 -8 -2 -8 8 0 9 6 17 13 17 8 0 8 3 -2 9 -9 6 -12 19 -8 37 5 27 4 27 -9
10 -8 -11 -15 -18 -16 -15 -19 31 -28 52 -28 66 0 10 -10 25 -22 32 -31 20
-123 41 -154 35 -13 -2 -24 0 -24 6 0 5 -7 10 -15 10 -8 0 -15 7 -15 15 0 8
-6 12 -14 9 -8 -3 -16 2 -19 13 -4 16 -5 16 -6 -1 -1 -20 -1 -20 -17 0 -13 16
-15 16 -10 2 6 -20 -9 -25 -18 -5 -5 9 -7 9 -12 0 -4 -9 -11 -10 -25 -3 -10 6
-19 7 -19 3 -1 -4 -10 3 -20 16 -26 30 -25 20 0 -21 24 -39 25 -49 5 -42 -8 4
-15 14 -15 23 0 10 -3 12 -8 4 -5 -8 -18 -6 -47 8 -22 11 -34 14 -27 7 7 -7
12 -19 12 -28 -1 -12 -4 -11 -15 4 -15 20 -20 12 -16 -21 1 -7 -3 -13 -9 -13
-5 0 -10 8 -10 18 -1 16 -1 16 -14 0 -9 -12 -16 -14 -23 -7 -8 8 -13 7 -17 0
-4 -6 -4 -11 0 -11 3 0 1 -7 -6 -15 -10 -12 -16 -13 -28 -3 -13 10 -14 10 -8
1 9 -17 -6 -17 -23 -1 -12 11 -13 9 -7 -7 5 -18 5 -18 -7 -4 -12 16 -15 15
-34 -7 -12 -13 -24 -20 -28 -15 -3 6 -12 8 -20 4 -9 -3 -27 3 -42 12 -23 16
-25 16 -20 1 9 -23 -14 -20 -56 8 -47 32 -79 42 -71 23 9 -24 -14 -29 -27 -6
-9 17 -13 19 -20 8 -6 -10 -9 -11 -9 -1 0 6 -5 12 -10 12 -7 0 -7 -7 1 -22 10
-18 9 -20 -5 -15 -14 6 -16 3 -11 -14 5 -15 4 -19 -4 -15 -6 4 -11 13 -11 21
0 8 -4 16 -9 20 -6 3 -8 -4 -6 -15 2 -11 -1 -20 -7 -20 -7 0 -6 -6 2 -15 8 -9
9 -15 2 -15 -6 0 -14 5 -17 10 -5 9 -69 40 -81 40 -2 0 1 -11 6 -24 9 -24 8
-25 -43 -21 -39 3 -46 2 -29 -5 12 -5 22 -11 22 -14 0 -6 -94 19 -112 30 -10
6 -10 5 1 -9 13 -16 11 -16 -29 -2 -24 8 -50 21 -59 28 -12 10 -14 9 -8 -7 6
-15 5 -17 -7 -7 -11 9 -15 7 -19 -9 -3 -13 0 -20 8 -20 8 0 17 -5 21 -12 5 -7
3 -8 -5 -3 -14 8 -151 15 -151 7 0 -7 33 -31 43 -32 5 0 6 4 3 8 -2 4 4 8 15
8 10 0 19 -4 19 -8 0 -4 -7 -8 -16 -8 -8 0 -12 -4 -9 -10 9 -14 -18 -12 -34 3
-12 10 -13 9 -7 -7 5 -16 2 -18 -34 -14 -30 3 -40 0 -40 -11 0 -8 3 -12 6 -8
7 6 34 -16 34 -28 0 -4 -22 -5 -50 -3 -60 5 -67 -9 -10 -18 22 -4 43 -11 47
-17 4 -6 1 -7 -6 -2 -9 5 -12 2 -9 -11 2 -11 9 -18 15 -17 15 3 10 -62 -6 -81
-17 -20 4 -30 23 -10 15 14 16 14 16 -4 0 -11 -6 -23 -12 -25 -7 -3 -4 -6 6
-6 20 -1 20 -1 0 -17 -18 -15 -18 -15 4 -9 16 5 22 2 22 -10 0 -16 -24 -47
-35 -45 -3 1 -11 -1 -18 -4 -15 -6 17 -29 52 -36 24 -5 24 -5 5 -24 -16 -17
-16 -19 -2 -13 10 3 20 2 23 -3 3 -5 -16 -15 -42 -24 l-48 -14 58 5 c60 5 69
0 40 -24 -17 -13 -16 -13 3 -4 26 12 47 9 67 -10 14 -14 13 -17 -11 -31 -15
-9 -44 -19 -64 -23 -21 -4 -35 -12 -32 -17 4 -5 15 -8 25 -5 24 6 25 -9 2 -21
-18 -10 -27 -42 -12 -42 5 0 9 5 9 12 0 8 5 7 15 -3 13 -12 14 -21 5 -44 -10
-25 -9 -27 5 -15 14 11 16 11 13 -1 -2 -9 4 -13 17 -10 18 3 19 2 4 -15 -22
-26 -32 -45 -22 -43 4 1 15 1 23 0 13 -1 13 -2 0 -12 -11 -8 -9 -9 10 -3 14 3
31 11 38 16 8 7 12 7 12 0 0 -6 -9 -16 -21 -22 -30 -17 -15 -24 22 -11 38 13
44 10 30 -18 -17 -31 5 -35 27 -5 19 27 19 27 25 5 4 -17 -1 -25 -21 -34 -37
-16 -44 -29 -26 -48 8 -8 11 -19 7 -23 -4 -4 0 -4 9 -1 27 11 31 -13 7 -46
l-22 -32 29 19 c26 17 25 15 -11 -28 -22 -26 -46 -47 -53 -48 -7 0 -11 -4 -7
-9 3 -6 -3 -15 -12 -20 -14 -9 -10 -10 19 -7 21 3 43 8 50 12 10 5 10 4 1 -6
-9 -9 -9 -19 -2 -33 6 -11 7 -17 2 -14 -4 3 -14 -6 -20 -20 -9 -19 -9 -22 0
-15 7 5 34 21 61 37 47 26 49 27 43 6 -7 -26 3 -27 36 -1 16 13 28 16 32 10 3
-5 1 -10 -6 -10 -6 0 -17 -7 -23 -15 -6 -9 -21 -17 -34 -18 -37 -2 -25 -17 15
-17 l36 0 -41 -42 c-23 -23 -42 -45 -42 -50 0 -4 20 4 45 18 25 13 45 22 45
20 0 -3 -15 -22 -32 -43 -18 -20 -27 -34 -20 -29 16 10 15 0 -4 -29 -20 -31
-5 -33 21 -3 10 13 20 18 22 11 2 -6 13 -8 25 -5 16 4 19 2 13 -9 -4 -8 2 -4
14 9 28 29 33 28 21 -4 -14 -36 -13 -37 16 -18 l25 17 -22 -39 c-12 -21 -29
-47 -37 -56 -11 -13 -11 -18 -3 -18 7 0 10 -3 7 -8 -2 -4 -7 -28 -10 -52 -6
-45 -6 -45 7 -15 10 22 22 31 42 33 23 2 26 -1 22 -18 -5 -21 1 -21 52 -2 11
4 13 1 7 -13 -7 -18 -6 -18 14 0 28 26 25 10 -7 -33 l-28 -36 38 22 c21 12 35
18 32 12 -3 -5 1 -10 9 -10 18 0 20 -11 6 -28 -6 -6 -7 -10 -3 -7 3 3 15 -2
25 -12 12 -10 18 -12 18 -4 0 8 5 7 15 -3 19 -18 10 -62 -31 -155 -26 -59 -25
-59 20 2 36 49 51 44 48 -19 l-2 -49 14 30 c11 24 15 26 15 10 1 -14 8 -6 24
24 l22 44 3 -31 c3 -25 9 -33 29 -38 l25 -7 -33 -26 c-67 -53 -65 -52 -49 -49
8 2 14 -2 13 -9 -2 -7 6 -10 18 -8 18 4 19 2 7 -13 -12 -15 -11 -15 14 1 19
12 29 14 34 5 4 -6 3 -8 -3 -5 -6 4 -16 0 -23 -8 -7 -8 -21 -15 -32 -15 -11 0
-18 -5 -15 -12 5 -14 20 -15 52 -3 17 7 16 5 -4 -13 -27 -24 -22 -28 12 -10
21 11 21 10 7 -8 -14 -18 -14 -18 6 -2 11 10 24 18 29 18 5 0 18 8 29 17 16
15 15 9 -8 -29 -28 -50 -28 -58 1 -33 10 8 21 14 25 13 4 -2 14 6 22 17 14 19
15 18 11 -13 -3 -28 -1 -31 10 -22 12 10 13 6 5 -21 -6 -21 -6 -37 0 -44 5 -7
9 -14 7 -16 -1 -2 3 2 10 9 16 19 32 7 26 -21 -5 -21 -5 -21 9 -3 13 16 15 17
16 2 4 -33 3 -42 -3 -66 -3 -15 4 -6 19 20 14 25 25 41 26 36 0 -5 9 -1 21 10
21 19 21 19 -1 -21 -22 -40 -21 -40 31 15 28 30 49 48 45 40 -5 -9 -2 -9 7 2
8 10 17 15 20 11 4 -3 7 5 7 20 0 14 5 29 10 32 16 10 12 -38 -6 -63 -11 -16
-12 -22 -3 -22 7 0 0 -14 -17 -32 -16 -17 -23 -28 -16 -24 6 4 12 2 12 -4 0
-6 11 -3 26 6 l26 17 -17 -39 c-27 -63 -27 -64 -22 -64 3 0 22 26 41 57 39 62
49 57 15 -9 -11 -22 -22 -50 -24 -62 -4 -21 -4 -21 10 -2 8 11 15 24 15 29 0
5 7 7 15 3 9 -3 19 3 25 14 11 21 35 28 25 8 -4 -7 2 -3 13 9 27 31 32 29 21
-9 -10 -35 -5 -48 13 -30 16 16 41 16 32 0 -5 -9 -2 -9 9 1 22 17 22 3 0 -21
-15 -17 -15 -18 0 -18 10 0 17 4 17 8 0 5 7 9 16 9 15 0 16 -8 3 -57 -3 -11 3
-14 19 -13 16 2 21 -1 17 -10 -4 -6 3 -1 15 13 12 14 19 19 15 13 -3 -7 -1
-13 4 -13 6 0 11 5 11 10 0 6 4 10 9 10 6 0 6 -12 1 -30 -5 -17 -5 -28 0 -25
5 3 11 -3 13 -12 2 -10 3 -6 1 10 -3 23 -1 25 10 15 8 -7 12 -16 9 -21 -2 -4
0 -7 6 -7 5 0 12 10 14 23 3 12 5 5 4 -15 -1 -37 8 -63 10 -30 3 37 13 76 21
84 7 7 11 -14 13 -77 0 -20 0 -20 15 -1 8 11 14 26 14 33 0 7 4 13 9 13 6 0 8
-10 6 -23 -4 -21 -4 -21 15 3 l19 25 -9 -40 c-8 -35 -7 -38 5 -21 7 10 19 15
25 11 7 -4 9 3 5 23 -3 17 1 36 10 48 9 10 15 15 14 9 -1 -5 -1 -21 0 -34 1
-24 1 -24 15 -5 14 18 15 18 21 2 4 -10 12 -15 18 -11 6 4 7 1 2 -7 -9 -15
-13 -80 -4 -80 3 0 10 12 16 28 10 26 11 26 11 -13 0 -22 1 -56 2 -75 l2 -35
7 30 c8 32 38 95 46 95 2 0 2 -6 -1 -14 -3 -8 0 -17 6 -21 6 -4 9 -1 8 7 -2 7
2 12 9 11 6 -1 14 15 18 38 6 36 19 46 20 16 1 -7 6 -11 13 -10 6 2 9 -3 6
-11 -3 -8 -1 -17 5 -21 7 -3 11 2 11 14 0 12 4 21 9 21 5 0 8 -8 6 -17 -2 -10
-4 -18 -5 -18 -1 0 -3 -9 -5 -20 -6 -35 -10 -50 -18 -61 -4 -8 3 -11 22 -10
16 0 27 4 24 9 -2 4 -9 4 -15 1 -7 -4 -8 -2 -4 4 4 6 14 8 22 5 9 -3 21 3 30
16 8 11 21 21 27 21 7 0 20 14 30 31 10 18 21 29 24 25 4 -3 1 -12 -5 -18 -7
-7 -12 -19 -12 -27 0 -14 2 -14 11 -1 8 12 10 9 6 -13 -6 -38 4 -34 37 15 25
38 28 40 23 15 -4 -23 -2 -25 11 -15 14 11 15 10 8 -7 -5 -11 -10 -31 -11 -45
-3 -24 -3 -24 24 8 33 39 39 40 36 7 -4 -35 12 -31 20 4 4 21 11 28 21 24 8
-3 14 -2 13 3 -3 19 1 44 9 44 13 0 34 -60 27 -78 -4 -12 0 -11 18 6 l24 23 6
-23 6 -22 23 21 c29 26 78 57 78 49 0 -3 -17 -25 -37 -48 -40 -44 -19 -40 31
7 21 19 31 23 36 15 5 -9 10 -6 15 9 11 35 16 19 6 -17 -9 -29 -8 -31 9 -22
29 16 43 12 37 -10 -3 -11 0 -18 6 -17 10 2 12 -3 16 -35 1 -12 15 -2 17 13 3
22 5 23 14 9 8 -12 10 -8 11 15 1 17 1 34 0 39 -2 11 29 59 35 53 3 -2 0 -16
-5 -31 -9 -21 -8 -26 5 -26 8 0 20 -14 26 -31 8 -23 13 -27 19 -17 7 11 11 10
19 -2 8 -13 10 -12 10 4 0 21 38 58 51 50 5 -3 12 2 15 10 7 19 22 21 21 3 -3
-33 16 -148 23 -137 6 9 9 9 12 -1 3 -8 6 5 6 29 0 24 7 49 16 58 9 8 16 11
16 5 0 -6 5 -11 11 -11 5 0 7 4 4 10 -3 5 -2 10 4 10 5 0 8 9 6 20 -5 28 2 25
20 -7 l15 -28 -3 25 c-1 14 -7 31 -11 39 -7 11 -5 13 7 8 10 -3 17 -2 17 2 0
5 -6 11 -12 14 -7 2 -1 4 14 4 20 0 26 -4 23 -18 -2 -12 1 -16 10 -13 10 4 12
0 8 -15 -9 -34 26 -14 43 23 l13 31 1 -28 c0 -16 4 -25 10 -22 6 3 8 -10 5
-34 -2 -23 1 -43 6 -46 5 -4 9 0 9 8 0 8 9 22 21 32 20 19 20 19 9 -10 -9 -28
-9 -28 5 -11 11 15 15 16 19 5 14 -43 15 -44 22 -20 l7 23 13 -23 c13 -23 13
-23 9 9 -5 44 11 41 20 -5 6 -32 8 -35 17 -20 5 10 7 25 4 33 -11 28 23 12 43
-21 11 -18 12 -16 6 15 l-5 35 30 -35 30 -35 -5 60 c-4 46 -3 56 5 43 13 -22
35 -24 26 -3 -3 8 -9 22 -12 30 -4 10 0 15 11 15 12 0 15 -5 11 -17 -3 -10 4
-6 17 10 23 27 45 38 30 15 -15 -25 -31 -78 -22 -78 5 0 9 -8 9 -17 1 -12 8
-6 21 17 11 19 18 27 15 18 -2 -9 2 -19 10 -22 9 -3 16 4 20 22 3 15 10 39 16
55 l11 27 23 -25 c29 -31 36 -32 24 -1 -13 34 16 45 32 12 11 -26 29 -25 61 2
21 18 21 16 2 -39 l-15 -44 25 30 c19 22 23 24 15 8 -8 -18 -8 -22 4 -17 8 3
17 15 20 27 3 12 12 31 21 42 16 20 16 20 11 -3 -3 -17 -1 -22 9 -19 9 4 12
-4 9 -31 l-3 -37 14 40 c12 36 14 37 14 12 1 -16 5 -26 10 -22 5 3 12 -5 14
-17 3 -17 5 -15 6 9 0 17 5 34 10 38 6 3 8 -3 6 -15 -4 -21 11 -23 32 -3 10 9
10 18 2 40 -14 37 0 22 23 -25 10 -20 16 -29 13 -19 -2 9 0 17 5 17 6 0 6 10
2 23 -5 12 -7 28 -6 35 1 6 2 19 3 27 2 22 16 18 29 -7 10 -21 11 -19 12 17 1
36 2 38 15 22 7 -11 11 -25 8 -33 -3 -8 0 -14 7 -14 6 0 8 -5 4 -12 -4 -6 -3
-8 4 -4 6 3 9 16 7 27 -2 11 1 32 7 45 11 24 13 25 25 8 7 -10 13 -14 14 -8 0
5 6 -9 12 -30 14 -45 34 -58 39 -24 3 21 5 20 21 -12 l18 -35 -4 32 c-2 20 1
34 9 37 10 4 10 14 3 41 -10 35 -6 56 7 42 4 -3 15 -35 25 -69 15 -55 18 -58
18 -28 0 19 -5 62 -12 96 -10 45 -10 61 -1 61 6 0 9 -8 7 -17 -3 -10 2 -17 11
-17 9 0 16 5 16 11 1 6 9 -5 20 -24 17 -31 19 -32 21 -12 1 12 2 28 3 35 1 7
12 11 26 9 20 -2 22 -1 10 7 -8 6 -10 11 -5 12 6 1 15 2 20 4 6 1 22 3 38 3
15 1 27 6 27 12 0 5 9 24 21 42 20 32 21 32 16 6 -3 -19 0 -25 10 -21 8 3 11
13 8 23 -3 10 -1 21 4 25 7 4 8 -1 4 -11 -4 -11 -2 -15 4 -11 6 4 16 -12 23
-36 15 -45 38 -80 25 -37 -4 14 -4 21 1 17 5 -4 14 9 20 30 7 23 12 30 13 18
3 -42 19 -47 19 -6 0 22 3 45 6 49 3 5 -1 36 -8 70 -8 41 -9 59 -2 53 6 -4 20
-11 31 -15 18 -6 18 -5 -3 14 -13 12 -20 25 -16 29 4 3 9 0 11 -6 3 -7 9 -13
14 -13 6 0 5 9 -1 21 -11 20 -11 20 19 4 17 -8 33 -15 36 -15 3 0 9 0 14 0 5
0 26 -22 47 -50 47 -62 64 -65 28 -5 -14 25 -22 45 -17 45 4 0 1 5 -7 10 -9 6
-11 10 -3 10 8 0 10 7 6 18 -6 15 -5 15 10 4 9 -8 40 -15 69 -17 34 -2 46 0
33 5 -12 4 -27 15 -34 24 -7 9 -20 16 -28 16 -8 0 -11 5 -8 10 9 14 68 12 84
-2 11 -10 13 -10 7 -1 -5 9 0 13 16 13 18 0 20 2 8 10 -8 5 -25 10 -38 10 -13
0 -20 4 -17 10 4 6 11 7 17 4 7 -4 8 -2 4 4 -10 17 52 46 69 32 11 -9 12 -7 8
9 -4 15 -1 21 11 21 10 0 14 5 11 10 -3 6 -1 10 4 10 6 0 11 -10 12 -22 0 -13
3 -17 6 -10 3 9 10 7 24 -9 23 -27 24 -18 3 23 -9 16 -11 27 -5 24 14 -9 14
-4 1 28 -11 30 -4 33 23 9 11 -10 17 -12 13 -5 -11 18 5 14 20 -5 11 -16 12
-13 4 17 -14 50 -12 60 6 27 9 -16 18 -27 20 -24 4 4 -12 51 -41 119 -5 14 -2
18 14 18 14 0 19 5 15 15 -4 8 -1 15 6 15 6 0 14 -9 17 -20 7 -25 9 -25 34 -1
13 12 22 35 24 58 3 46 14 98 26 129 4 13 6 32 3 41 -5 15 -4 16 5 3 10 -13
15 -8 12 12 0 4 6 5 14 2 8 -4 15 -1 15 6 0 7 6 6 16 -4 22 -23 25 -20 8 12
-26 50 -14 56 32 15 39 -36 104 -67 89 -43 -9 15 7 12 35 -6 14 -9 1 5 -27 31
-29 26 -53 51 -53 57 0 6 6 5 15 -2 12 -10 15 -10 15 3 0 8 -6 18 -12 21 -38
19 -72 43 -76 55 -3 10 9 12 52 9 44 -2 53 -1 41 8 -11 8 -12 13 -4 16 9 3 9
9 1 25 -10 18 -8 22 15 28 15 3 22 9 16 13 -5 4 -13 24 -17 45 -4 21 -10 46
-13 55 -3 10 5 6 21 -11 33 -33 34 -33 28 -2 -4 21 0 25 19 26 22 0 21 2 -6
12 -16 7 -31 18 -32 25 -4 15 19 16 35 0 7 -7 12 -8 12 -2 0 5 -5 15 -12 22
-15 15 -3 16 22 2 15 -8 17 -6 13 10 -3 11 -9 18 -13 15 -5 -3 -6 5 -3 16 4
15 -1 27 -17 39 l-22 17 43 21 c38 19 40 22 18 22 -26 0 -79 21 -79 31 0 4 7
12 15 19 12 10 20 9 40 -4 35 -23 39 -20 16 13 -12 16 -21 34 -21 41 0 6 -5 8
-12 4 -7 -5 -8 -3 -3 5 4 7 16 10 28 7 15 -4 17 -2 8 7 -14 14 -14 30 1 21 7
-4 8 -3 4 4 -4 7 -13 12 -21 12 -8 0 -26 5 -40 12 l-26 12 23 18 23 18 -22 0
c-23 0 -25 3 -26 38 -1 9 -6 21 -12 25 -5 5 1 5 14 2 20 -6 23 -4 17 11 -4 10
-1 21 6 25 10 6 10 15 1 39 -10 26 -9 30 5 30 13 0 12 3 -4 15 -18 14 -18 14
9 16 15 1 30 2 35 4 4 1 24 5 45 9 52 11 56 26 8 26 -30 0 -41 4 -41 15 0 8 3
14 8 14 4 -1 14 -1 22 0 13 1 13 2 0 11 -13 9 -13 10 0 10 11 1 10 4 -4 15
-14 11 -16 15 -5 15 12 0 12 2 -1 10 -13 8 -12 10 3 10 25 0 21 20 -5 21 -13
1 -5 5 17 8 l40 7 -42 8 c-48 9 -55 25 -20 49 l22 16 -22 -4 c-13 -2 -23 0
-23 6 0 5 6 9 13 9 17 0 49 38 37 45 -5 3 -11 1 -14 -4 -3 -4 -17 -8 -32 -8
l-26 0 28 23 29 23 -38 -10 c-22 -6 -41 -8 -45 -5 -3 3 3 6 14 6 16 0 17 2 4
10 -9 6 -11 13 -5 18 16 11 15 41 -1 35 -17 -6 -18 8 -1 27 6 8 -1 4 -18 -10
-16 -14 -33 -29 -37 -35 -5 -6 -8 -6 -8 1 0 6 9 19 19 28 18 17 23 77 8 93 -4
3 -7 19 -7 35 0 16 -4 27 -9 24 -5 -3 -12 1 -15 9 -3 9 1 18 10 22 10 3 14 13
11 25 -4 15 -3 17 8 8 9 -8 14 -7 18 4 4 10 -10 28 -39 52 -24 20 -42 39 -40
41 3 3 30 -6 60 -20 31 -14 56 -24 56 -22 0 4 -92 69 -100 71 -9 1 -65 24 -85
34 -19 10 -18 10 3 6 18 -3 21 -2 12 9 -8 9 -3 14 22 20 18 4 39 7 47 6 7 -1
10 2 6 8 -3 6 1 11 10 11 10 0 13 -5 9 -12 -4 -7 -3 -8 5 -4 17 11 3 26 -24
26 -32 0 -41 17 -13 23 13 3 3 5 -22 5 -70 -1 -77 2 -45 17 l30 14 -28 -4
c-23 -3 -26 -1 -17 10 7 8 7 15 1 19 -6 4 -5 23 4 53 17 55 14 66 -6 26 -17
-34 -68 -45 -70 -16 0 10 -3 13 -5 6 -3 -7 -12 -9 -20 -6 -8 3 -14 0 -14 -6 0
-14 -57 -15 -65 -1 -4 6 7 10 25 10 18 0 29 4 25 10 -3 6 -15 10 -25 10 -10 0
-22 5 -26 11 -5 8 6 10 34 8 35 -4 40 -2 36 15 -2 11 1 25 7 33 12 13 -2 19
-15 6 -13 -13 -47 -10 -42 4 3 7 3 20 0 28 -5 13 -9 13 -27 0 -18 -13 -23 -13
-39 1 -16 15 -16 19 -3 45 21 40 19 46 -6 15 -11 -14 -26 -26 -32 -26 -7 0 -4
5 5 10 19 11 16 49 -4 62 -10 6 -10 8 0 8 6 0 12 5 12 11 0 5 -5 7 -10 4 -6
-4 -17 -1 -25 5 -8 7 -15 9 -15 4 0 -4 -10 2 -21 15 -17 18 -30 22 -60 19 -31
-3 -38 0 -34 10 3 9 -15 35 -45 65 -27 27 -50 51 -50 53 0 2 8 4 18 4 14 0 15
2 2 10 -13 9 -13 11 0 19 8 5 18 7 22 5 4 -3 8 2 8 10 0 8 8 20 18 25 9 6 13
11 8 11 -5 0 -18 -8 -28 -17 -17 -15 -20 -15 -28 -3 -8 12 -1 19 28 32 34 16
35 18 12 19 -14 1 -31 1 -39 0 -7 -2 -10 2 -6 8 8 14 -1 14 -26 1 -13 -7 -25
-7 -38 -1 -21 12 -73 22 -116 23 -16 0 -37 7 -46 15 -9 8 -27 15 -40 15 -13 1
-37 14 -54 28 -39 36 -61 46 -114 55 -38 6 -43 5 -38 -9 8 -20 -7 -21 -27 -1
-8 8 -21 15 -30 15 -8 0 -18 5 -21 10 -3 6 0 10 7 10 11 0 11 2 0 9 -19 12
-11 34 18 49 23 11 20 12 -30 10 -47 -3 -55 -1 -54 15 1 9 -2 17 -7 17 -5 0
-9 -11 -9 -24 0 -13 -6 -26 -14 -29 -19 -7 -48 37 -44 66 3 20 -23 58 -38 56
-4 0 -11 5 -16 13 -6 8 -7 1 -3 -21 7 -34 7 -34 -16 -17 -13 9 -32 16 -42 16
-16 0 -16 -2 3 -22 11 -12 20 -26 20 -30 0 -17 -32 -20 -71 -8 l-40 14 28 15
c27 15 27 16 6 19 -29 4 -29 17 -1 36 12 9 18 16 13 16 -6 0 -3 5 5 10 11 7 7
10 -18 10 -31 0 -32 1 -27 32 5 27 4 30 -10 18 -8 -7 -15 -10 -15 -8 0 3 -20
2 -45 -2 -42 -6 -44 -6 -30 10 15 16 14 17 -15 14 -16 -2 -42 -11 -58 -21
l-27 -17 24 26 c33 38 -28 20 -67 -19 -11 -10 -18 -11 -28 -3 -15 13 -60 9
-56 -5 4 -10 -29 -25 -41 -18 -4 3 -5 13 -2 24 4 11 2 19 -4 19 -6 0 -10 3
-10 8 3 19 -2 40 -16 58 -14 18 -14 18 -12 -6 1 -14 -2 -26 -8 -27 -5 -1 -9 4
-8 10 4 16 -75 21 -93 6 -8 -6 -12 -15 -9 -19 7 -11 -51 -24 -65 -15 -5 3 -10
16 -10 28 0 23 -14 51 -22 45 -3 -1 -20 14 -38 35 -19 20 -41 37 -50 37 -9 0
-21 5 -28 12 -16 16 -16 -4 1 -21 10 -11 8 -13 -10 -8 -22 5 -27 -2 -26 -40 0
-7 -11 -3 -28 9 -16 12 -29 28 -29 37 0 8 -3 12 -6 8 -3 -3 -15 4 -26 15 -19
19 -19 20 -2 39 16 18 16 19 1 13 -13 -5 -17 -1 -17 16 l0 23 -19 -21 c-21
-25 -38 -28 -38 -7 0 8 4 12 8 9 4 -2 7 4 6 15 -1 19 -2 19 -29 0 -29 -21 -38
-14 -15 11 6 8 2 6 -10 -4 -13 -11 -23 -15 -23 -11 0 4 -9 0 -20 -10 -28 -25
-35 -13 -14 22 l18 28 -31 -28 -31 -29 -7 23 c-7 22 -8 22 -22 3 -14 -18 -15
-18 -8 6 6 23 5 23 -14 -5 -12 -16 -21 -24 -21 -16 0 8 -6 5 -17 -8 -19 -23
-63 -37 -63 -20 0 6 -6 7 -12 2 -7 -4 -25 -8 -39 -8 -19 0 -25 4 -21 15 5 13
3 13 -10 2 -11 -9 -18 -10 -23 -2 -3 5 -3 10 1 10 4 0 -1 9 -11 20 -16 18 -20
18 -51 5 -31 -13 -35 -12 -44 6 -6 10 -17 19 -25 19 -8 0 -24 9 -35 20 -11 11
-22 21 -23 23 -2 1 -11 -4 -19 -11 -13 -11 -22 -9 -53 13 -21 14 -44 33 -51
43 -8 10 -13 12 -14 5 0 -25 -19 -12 -25 17 -8 35 -21 39 -30 9 -4 -11 -9 -18
-12 -15 -4 3 -12 1 -20 -6 -10 -8 -17 -8 -25 0 -7 7 -20 12 -30 12 -9 0 -22 9
-28 20 -9 16 -19 20 -52 18 l-42 -3 -4 45 c-2 25 -8 50 -13 55 -7 7 -8 4 -4
-6 4 -10 2 -19 -3 -22 -10 -7 -9 80 2 108 4 11 12 31 17 45 l9 25 -17 -21
c-10 -12 -22 -29 -28 -38 -7 -11 -14 -13 -25 -6 -13 8 -13 13 2 40 17 30 17
30 -2 20 -19 -10 -25 -4 -21 22 0 4 -6 5 -14 1 -13 -4 -14 -1 -5 23 6 16 17
32 23 36 9 6 8 11 -3 18 -13 8 -13 10 2 10 9 0 20 5 23 10 4 6 3 10 -2 9 -20
-3 -23 2 -12 23 10 18 9 20 -4 15 -12 -4 -14 -2 -10 10 4 11 2 14 -5 9 -8 -5
-11 -1 -9 11 6 28 29 73 39 73 5 0 7 4 3 9 -3 6 5 15 17 22 13 7 26 16 29 21
9 14 77 12 95 -3 10 -8 15 -9 11 -2 -4 6 -2 13 5 15 6 2 -3 10 -20 17 -32 13
-47 49 -17 37 9 -3 18 1 21 9 4 8 17 15 30 15 15 0 22 5 18 13 -3 9 7 14 32
15 20 2 57 14 81 29 47 27 97 35 127 20 13 -6 16 -6 12 2 -9 14 -5 14 38 -4
37 -16 37 -15 26 5 -9 17 -8 21 2 19 30 -4 53 1 41 9 -8 5 6 12 37 18 43 9 66
4 43 -9 -5 -2 -1 -1 7 1 8 3 27 6 42 7 15 1 33 6 40 12 17 13 88 9 97 -6 5 -8
22 -8 61 -1 30 6 61 8 71 5 10 -3 20 -1 24 5 5 7 18 4 42 -10 27 -16 38 -18
49 -9 10 8 24 6 59 -11 24 -12 58 -20 74 -18 21 2 35 -3 45 -17 15 -19 15 -19
16 -1 0 12 5 16 16 12 9 -3 20 -6 25 -6 6 0 7 -4 4 -10 -3 -6 4 -10 17 -10 13
0 49 -13 80 -29 31 -16 59 -26 62 -23 3 3 6 -4 6 -16 0 -12 5 -22 10 -22 6 0
17 -15 25 -32 8 -19 14 -25 15 -16 0 11 5 15 15 12 8 -4 13 -10 10 -14 -3 -4
1 -10 9 -13 8 -3 12 -16 11 -31 -4 -32 2 -33 16 -3 9 21 9 20 6 -5 -2 -15 0
-25 4 -22 5 3 9 12 9 20 0 8 5 14 10 14 6 0 10 -7 10 -15 0 -8 6 -14 13 -13 6
2 11 -3 10 -9 -2 -7 6 -28 17 -48 13 -24 16 -35 7 -36 -6 0 -2 -4 11 -9 12 -5
22 -14 22 -20 0 -5 7 -10 16 -10 10 0 14 -6 11 -14 -3 -7 1 -23 8 -34 8 -10
12 -22 9 -25 -3 -2 5 -22 16 -42 16 -28 18 -40 10 -45 -9 -6 -9 -9 -1 -15 7
-4 9 -16 6 -28 -5 -17 -4 -19 4 -7 11 16 11 16 15 -37 0 -10 9 -21 19 -26 15
-5 17 -10 8 -20 -10 -13 -9 -57 4 -88 3 -9 20 -19 37 -23 20 -4 28 -10 25 -20
-4 -9 2 -14 16 -14 12 0 36 -4 53 -10 29 -9 31 -8 26 10 -4 15 0 19 15 16 11
-1 27 3 35 9 10 9 24 10 46 3 18 -5 30 -5 27 0 -8 12 124 1 161 -15 29 -12 32
-12 27 2 -5 12 -3 14 7 8 19 -11 64 -13 71 -3 3 5 18 4 33 -2 24 -9 27 -8 22
5 -7 19 1 19 36 1 23 -12 26 -12 21 1 -5 13 -3 13 15 4 17 -9 21 -9 16 2 -4
11 11 13 68 12 73 -1 105 -11 229 -76 54 -28 58 -23 11 13 -44 34 -50 52 -8
24 35 -22 41 -20 22 9 -13 19 -13 25 -3 25 7 0 19 -6 26 -12 10 -11 11 -10 6
5 -6 13 -2 17 18 17 14 0 29 -5 32 -10 4 -6 12 -7 18 -3 6 4 24 6 40 5 17 -2
26 2 22 8 -3 5 2 10 12 11 10 1 34 2 53 3 19 2 40 -1 45 -5 18 -13 77 -21 70
-9 -4 7 2 7 19 0 14 -5 26 -6 26 -2 0 11 39 12 45 1 4 -5 11 -9 16 -9 6 0 7 5
3 11 -3 6 5 3 20 -6 34 -23 33 -11 -1 22 -24 22 -25 25 -7 19 15 -4 21 -2 21
9 0 8 -7 15 -16 16 -12 0 -10 3 4 8 11 5 27 6 35 4 13 -4 13 -4 0 6 -16 11
-10 14 30 12 23 -1 23 0 5 8 -17 8 -16 10 10 10 17 1 42 -7 55 -16 l25 -17
-20 24 c-11 13 -14 20 -6 15 8 -4 25 -9 38 -11 19 -2 22 1 13 11 -8 10 0 12
42 8 l53 -4 -30 16 c-42 23 -43 26 -4 19 l34 -6 -24 20 c-26 21 -15 32 30 27
14 -2 26 2 26 9 0 6 -20 11 -49 12 -27 1 -54 6 -61 13 -8 8 -7 11 4 11 8 0 24
7 35 15 19 15 19 15 -1 9 -15 -4 -13 -1 5 10 l25 15 -25 2 c-14 1 -31 2 -37 2
-26 -1 -12 18 17 24 17 3 30 10 30 15 0 5 -4 6 -10 3 -5 -3 -10 -2 -10 4 0 6
-8 8 -17 5 -14 -5 -15 -4 -4 4 8 6 21 8 30 5 14 -4 14 -3 1 5 -12 9 -11 14 5
34 l20 23 -25 -20 c-13 -11 -36 -30 -50 -42 -13 -13 -31 -23 -39 -23 -8 0 -2
9 13 21 21 16 25 24 16 33 -8 8 -14 7 -23 -4 -19 -23 -36 -22 -29 2 5 19 2 21
-26 15 -19 -4 -32 -2 -32 3 0 6 3 10 8 10 8 0 52 62 52 75 0 5 -10 -1 -22 -12
-41 -36 -48 -37 -37 -1 13 48 12 68 -6 62 -8 -4 -15 -1 -15 5 0 6 -8 11 -17
11 -15 0 -14 2 3 16 10 8 13 12 6 9 -10 -6 -12 1 -6 32 4 21 8 40 10 42 2 2
-4 10 -14 18 -9 8 -11 12 -4 8 8 -4 12 1 12 14 0 12 -5 21 -10 21 -20 0 14 39
39 45 23 6 24 8 8 17 -13 7 -16 16 -11 31 6 20 6 20 -10 4 -22 -22 -39 -22
-34 1 6 26 -48 129 -73 137 -11 4 -27 22 -35 41 -8 19 -21 37 -29 40 -16 6
-10 73 9 89 6 6 23 35 38 64 26 51 26 53 5 32 -26 -24 -38 -27 -35 -8 2 6 -2
11 -9 10 -9 -2 -10 4 -4 20 4 12 6 28 3 36 -2 8 0 11 5 8 5 -3 9 3 9 14 0 16
-7 13 -37 -17 l-38 -37 4 39 c1 21 6 48 10 59 4 11 -4 3 -16 -17 -13 -21 -27
-38 -33 -38 -6 0 -5 5 2 12 17 17 15 33 -3 18 -20 -17 -19 -7 5 37 26 49 18
53 -21 9 -17 -20 -34 -34 -37 -32 -3 3 1 12 7 20 7 9 14 55 16 108 3 59 1 87
-5 78 -6 -8 -10 -22 -10 -31 0 -8 -7 -24 -16 -35 -8 -10 -13 -13 -9 -6 4 7 0
12 -9 12 -8 0 -18 5 -22 12 -5 7 -2 8 7 3 11 -6 11 -5 2 5 -6 7 -9 19 -6 26 3
10 0 12 -10 8 -8 -3 -17 -14 -20 -25 -3 -10 -9 -19 -15 -19 -15 0 -2 47 19 66
10 9 19 22 19 27 0 6 -8 3 -18 -6 -18 -17 -42 -23 -42 -11 0 3 9 19 21 35 15
21 16 27 5 23 -12 -4 -14 0 -10 20 6 33 -3 33 -28 0 -11 -14 -23 -23 -26 -20
-2 3 1 13 9 23 9 11 10 14 2 9 -7 -4 -13 -3 -13 3 0 5 5 13 10 16 6 4 7 11 4
17 -5 7 -11 5 -19 -6 -11 -15 -13 -15 -19 -1 -3 8 -1 27 5 42 8 23 8 24 -6 13
-8 -7 -15 -18 -15 -26 0 -14 -48 -70 -54 -63 -14 17 -25 49 -16 49 5 0 10 5
10 10 0 6 -6 9 -12 8 -8 -2 -12 5 -10 16 2 10 -2 23 -10 27 -10 7 -9 9 5 9 9
0 17 7 17 16 0 10 -5 12 -12 7 -19 -11 -38 -13 -38 -2 0 4 -7 5 -17 2 -11 -4
-14 -3 -9 5 7 11 -6 17 -28 13 -5 -1 -5 6 -1 16 19 47 15 51 -21 17 -37 -35
-38 -36 -46 -14 -6 16 -2 31 14 53 l22 32 -25 -22 c-20 -18 -28 -20 -38 -10
-10 9 -11 9 -6 -4 4 -10 1 -20 -6 -25 -8 -4 -10 -3 -5 4 4 7 2 12 -3 12 -6 0
-11 -5 -11 -11 0 -8 -5 -8 -15 1 -8 7 -12 16 -9 21 3 5 0 9 -6 9 -7 0 -9 -8
-5 -21 l7 -22 -22 21 c-18 17 -27 19 -43 10 -17 -9 -19 -8 -14 11 3 12 2 19
-3 16 -4 -3 -12 1 -18 8 -11 13 -12 16 -12 53 0 14 -4 23 -9 20 -5 -4 -19 6
-31 21 -15 20 -20 22 -15 8 15 -41 17 -65 6 -65 -6 0 -11 8 -11 19 0 10 -9 21
-19 24 -15 3 -18 1 -14 -11 4 -10 2 -13 -5 -8 -7 4 -12 2 -12 -3 0 -19 -3 -26
-18 -40 -12 -13 -17 -11 -33 10 -11 13 -18 34 -16 47 3 12 0 22 -4 22 -5 0 -6
15 -3 33 l5 32 -15 -32 c-18 -39 -33 -42 -46 -10 -5 12 -9 18 -10 12 -5 -38
-11 -51 -26 -62 -15 -11 -21 -11 -32 1 -8 8 -12 22 -8 31 5 15 9 15 23 4 14
-12 15 -11 8 10 -5 16 -4 21 4 17 6 -4 11 -3 11 3 0 6 -12 14 -27 17 -40 10
-54 24 -47 46 6 19 5 19 -20 3 -36 -24 -33 -9 7 27 30 29 30 30 7 23 -14 -4
-37 -16 -52 -27 -29 -20 -38 -13 -15 12 6 8 2 6 -10 -4 -13 -11 -23 -14 -23
-8 0 7 -9 3 -20 -8 -12 -12 -26 -18 -32 -14 -7 4 -2 12 13 20 24 13 24 13 2
14 -12 0 -28 10 -34 22 l-12 22 -17 -22 c-21 -26 -30 -28 -30 -7 0 8 -3 14 -7
14 -20 -3 -24 2 -13 16 7 9 10 18 7 22 -4 3 -25 -14 -48 -38 -22 -24 -36 -34
-30 -22 15 30 14 32 -14 29 -26 -3 -26 0 -10 85 2 10 -4 24 -13 31 -10 8 -13
9 -9 1 4 -6 3 -14 -3 -18 -5 -3 -10 -15 -10 -25 0 -10 -5 -22 -11 -26 -8 -5
-10 6 -7 35 2 22 0 41 -4 41 -5 0 -8 -6 -8 -12 -1 -20 -28 -51 -39 -44 -6 4
-5 23 4 54 l14 47 -19 -25 c-11 -14 -20 -19 -20 -12 0 29 -28 9 -35 -25 -6
-34 -8 -36 -20 -20 -10 14 -14 15 -18 5 -3 -8 -6 -5 -6 7 -1 17 -3 17 -11 5
-8 -13 -10 -12 -10 4 0 29 -11 13 -17 -26 -7 -44 -10 -46 -24 -12 -11 25 -13
26 -16 9 -11 -56 -15 -65 -28 -65 -8 0 -15 5 -15 11 0 6 -9 9 -20 6 -17 -4
-18 -2 -9 16 9 20 8 20 -10 -2 -14 -15 -21 -18 -21 -9 0 8 3 18 8 24 4 5 0 3
-8 -6 -8 -8 -26 -15 -40 -14 -30 1 -52 -14 -43 -29 3 -6 1 -7 -5 -3 -16 9 -15
33 1 40 6 4 2 4 -10 2 -25 -5 -27 0 -23 77 2 54 -3 58 -24 20 -8 -16 -15 -22
-16 -15 0 7 -4 11 -8 8 -9 -5 -16 39 -15 102 0 48 -4 53 -13 16z m-867 -230
c-3 -3 -12 -4 -19 -1 -8 3 -5 6 6 6 11 1 17 -2 13 -5z m-217 -44 c0 -5 -5 -10
-11 -10 -5 0 -7 5 -4 10 3 6 8 10 11 10 2 0 4 -4 4 -10z m2685 -429 c-3 -6
-11 -8 -17 -5 -6 4 -5 9 3 15 16 10 23 4 14 -10z m-3781 -60 c-9 -10 -26 18
-18 30 5 9 9 8 14 -7 4 -10 6 -21 4 -23z m16 -32 c0 -6 -4 -7 -10 -4 -5 3 -10
11 -10 16 0 6 5 7 10 4 6 -3 10 -11 10 -16z m-333 -471 c-3 -8 -6 -5 -6 6 -1
11 2 17 5 13 3 -3 4 -12 1 -19z m4652 -297 c11 -15 18 -30 16 -33 -7 -7 -83
66 -78 75 7 12 40 -10 62 -42z m-30 -40 c9 -6 10 -11 2 -15 -13 -8 -31 1 -31
15 0 11 11 11 29 0z m81 -301 c0 -5 -4 -10 -10 -10 -5 0 -10 5 -10 10 0 6 5
10 10 10 6 0 10 -4 10 -10z m-4820 -304 c-14 -14 -24 0 -16 21 6 15 8 15 16 3
6 -9 5 -19 0 -24z m2446 -424 c-17 -16 -18 -16 -5 5 7 12 15 20 18 17 3 -2 -3
-12 -13 -22z m284 -96 c0 -3 -4 -8 -10 -11 -5 -3 -10 -1 -10 4 0 6 5 11 10 11
6 0 10 -2 10 -4z m700 -156 c0 -5 -4 -10 -10 -10 -5 0 -10 5 -10 10 0 6 5 10
10 10 6 0 10 -4 10 -10z m60 -38 c0 -5 -12 -14 -27 -21 l-28 -12 25 21 c29 22
30 23 30 12z m-2310 -766 c0 -8 -6 -16 -14 -19 -10 -4 -12 0 -9 14 6 22 23 26
23 5z m1896 -601 c-3 -24 -11 -25 -24 -5 -10 17 -10 20 7 20 11 0 18 -6 17
-15z m1894 -90 c0 -23 -26 -11 -28 13 -2 21 0 23 13 12 8 -7 15 -18 15 -25z
m5 -35 c-3 -5 -14 -10 -23 -10 -15 0 -15 2 -2 10 20 13 33 13 25 0z m-5115
-1004 c0 -3 -4 -8 -10 -11 -5 -3 -10 -1 -10 4 0 6 5 11 10 11 6 0 10 -2 10 -4z
m5110 -131 c0 -8 -6 -15 -14 -15 -20 0 -29 17 -14 23 22 9 28 7 28 -8z m-27
-59 c4 -10 1 -13 -8 -9 -8 3 -12 9 -9 14 7 12 11 11 17 -5z m-4982 -29 c-10
-9 -11 -8 -5 6 3 10 9 15 12 12 3 -3 0 -11 -7 -18z m5004 -167 c3 -5 1 -10 -4
-10 -6 0 -11 5 -11 10 0 6 2 10 4 10 3 0 8 -4 11 -10z m-4945 -24 c0 -2 -7 -7
-16 -10 -8 -3 -12 -2 -9 4 6 10 25 14 25 6z m4727 -58 c-3 -8 -6 -5 -6 6 -1
11 2 17 5 13 3 -3 4 -12 1 -19z m-4653 -93 c3 -8 1 -15 -3 -15 -5 0 -17 -3
-26 -7 -15 -5 -16 -3 -6 15 14 26 27 28 35 7z m41 -45 c-3 -5 -11 -10 -16 -10
-6 0 -7 5 -4 10 3 6 11 10 16 10 6 0 7 -4 4 -10z m295 -264 c0 -3 -4 -8 -10
-11 -5 -3 -10 -1 -10 4 0 6 5 11 10 11 6 0 10 -2 10 -4z m5 -26 c-3 -5 -12
-10 -18 -10 -7 0 -6 4 3 10 19 12 23 12 15 0z m-25 -84 c0 -2 -7 -6 -15 -10
-8 -3 -15 -1 -15 4 0 6 7 10 15 10 8 0 15 -2 15 -4z m180 -186 c-6 -11 -13
-20 -16 -20 -2 0 0 9 6 20 6 11 13 20 16 20 2 0 0 -9 -6 -20z m3419 -52 c-10
-38 -19 -49 -30 -42 -5 3 -7 9 -4 14 3 5 -3 13 -12 19 -17 9 -17 10 0 23 10 8
26 14 36 14 15 0 17 -5 10 -28z m-3023 -83 c-3 -20 -16 -31 -16 -13 0 13 8 28
16 28 1 0 1 -7 0 -15z m-99 -17 c-3 -8 -6 -5 -6 6 -1 11 2 17 5 13 3 -3 4 -12
1 -19z m187 -93 c-4 -8 -11 -15 -16 -15 -6 0 -5 6 2 15 7 8 14 15 16 15 2 0 1
-7 -2 -15z m1016 -89 c0 -2 -9 -11 -19 -21 -19 -16 -20 -16 -18 2 0 11 9 20
19 20 10 1 18 0 18 -1z m-51 -67 c-13 -26 -19 -24 -19 6 0 17 4 23 15 19 11
-5 12 -11 4 -25z m362 4 c-8 -15 -10 -15 -11 -2 0 17 10 32 18 25 2 -3 -1 -13
-7 -23z m686 2 c-7 -13 -14 -20 -15 -14 -2 5 2 16 8 24 18 21 20 18 7 -10z
m-717 -30 c0 -8 -2 -15 -4 -15 -2 0 -6 7 -10 15 -3 8 -1 15 4 15 6 0 10 -7 10
-15z m612 -20 c3 -13 1 -22 -3 -19 -9 5 -13 44 -5 44 2 0 6 -11 8 -25z"/>
<path d="M7445 7589 c-4 -6 -5 -12 -2 -15 2 -3 7 2 10 11 7 17 1 20 -8 4z"/>
<path d="M1733 7570 c-1 -11 2 -20 7 -20 4 0 7 7 6 15 -3 23 -12 26 -13 5z"/>
<path d="M1110 7562 c0 -4 10 -9 22 -9 18 -2 20 0 8 7 -18 12 -30 13 -30 2z"/>
<path d="M7860 7561 c0 -6 4 -13 10 -16 6 -3 7 1 4 9 -7 18 -14 21 -14 7z"/>
<path d="M1277 7549 c7 -7 15 -10 18 -7 3 3 -2 9 -12 12 -14 6 -15 5 -6 -5z"/>
<path d="M1856 7551 c-4 -5 3 -7 14 -4 23 6 26 13 6 13 -8 0 -17 -4 -20 -9z"/>
<path d="M1080 7531 c-7 -14 -7 -21 0 -21 5 0 10 8 10 17 0 13 3 14 12 5 15
-15 28 -15 28 0 0 6 -3 8 -7 5 -3 -4 -12 -2 -19 4 -9 8 -15 5 -24 -10z"/>
<path d="M1230 7541 c0 -7 -4 -9 -10 -6 -6 4 -7 -1 -3 -11 6 -15 7 -15 15 1 6
9 7 19 4 22 -3 4 -6 1 -6 -6z"/>
<path d="M1366 7535 c-24 -18 -29 -42 -10 -42 10 0 11 4 5 10 -6 6 -2 16 12
28 26 22 20 25 -7 4z"/>
<path d="M1429 7531 c6 -10 9 -20 8 -22 -1 -2 0 -3 2 -1 11 7 8 31 -5 36 -11
4 -12 1 -5 -13z"/>
<path d="M1615 7540 c-3 -6 1 -7 9 -4 18 7 21 14 7 14 -6 0 -13 -4 -16 -10z"/>
<path d="M1805 7540 c-3 -6 1 -7 9 -4 18 7 21 14 7 14 -6 0 -13 -4 -16 -10z"/>
<path d="M7555 7539 c-3 -4 2 -6 10 -5 21 3 28 13 10 13 -9 0 -18 -4 -20 -8z"/>
<path d="M7896 7537 c3 -10 9 -15 12 -12 3 3 0 11 -7 18 -10 9 -11 8 -5 -6z"/>
<path d="M1150 7526 c0 -8 4 -17 9 -20 5 -4 7 3 4 14 -6 23 -13 26 -13 6z"/>
<path d="M1691 7532 c-1 -8 -6 -10 -13 -6 -10 5 -10 4 -1 -6 15 -16 28 -8 20
12 -4 11 -6 11 -6 0z"/>
<path d="M7675 7530 c-3 -5 -1 -10 4 -10 6 0 11 5 11 10 0 6 -2 10 -4 10 -3 0
-8 -4 -11 -10z"/>
<path d="M7805 7529 c-11 -16 -1 -19 13 -3 7 8 8 14 3 14 -5 0 -13 -5 -16 -11z"/>
<path d="M1300 7517 c0 -11 -7 -15 -21 -12 -12 3 -19 1 -15 -2 13 -13 37 -11
43 3 3 8 3 18 -1 21 -3 4 -6 -1 -6 -10z"/>
<path d="M1480 7519 c0 -5 5 -7 10 -4 6 3 10 8 10 11 0 2 -4 4 -10 4 -5 0 -10
-5 -10 -11z"/>
<path d="M1550 7521 c0 -6 4 -13 10 -16 6 -3 7 1 4 9 -7 18 -14 21 -14 7z"/>
<path d="M7480 7520 c0 -5 5 -10 10 -10 6 0 10 5 10 10 0 6 -4 10 -10 10 -5 0
-10 -4 -10 -10z"/>
<path d="M7737 7515 c-4 -8 -3 -16 1 -19 4 -3 9 4 9 15 2 23 -3 25 -10 4z"/>
<path d="M1096 7502 c-3 -5 -4 -17 -2 -28 3 -21 28 -26 32 -6 1 7 0 8 -3 2 -8
-17 -19 -11 -20 10 -1 13 2 18 9 14 7 -4 8 -2 4 4 -8 14 -13 15 -20 4z"/>
<path d="M1130 7501 c0 -6 4 -11 9 -11 5 0 12 -8 14 -17 4 -15 5 -15 6 -2 0 9
-6 22 -14 29 -10 9 -15 9 -15 1z"/>
<path d="M1672 7494 c10 -10 20 -16 22 -13 3 3 -5 11 -17 18 -21 13 -21 12 -5
-5z"/>
<path d="M7550 7499 c0 -5 5 -7 10 -4 6 3 10 8 10 11 0 2 -4 4 -10 4 -5 0 -10
-5 -10 -11z"/>
<path d="M7680 7500 c-9 -6 -10 -10 -3 -10 6 0 15 5 18 10 8 12 4 12 -15 0z"/>
<path d="M1060 7495 c0 -5 5 -17 10 -25 5 -8 10 -10 10 -5 0 6 -5 17 -10 25
-5 8 -10 11 -10 5z"/>
<path d="M1210 7490 c-9 -6 -10 -10 -3 -10 6 0 15 5 18 10 8 12 4 12 -15 0z"/>
<path d="M1491 7484 c0 -11 3 -14 6 -6 3 7 2 16 -1 19 -3 4 -6 -2 -5 -13z"/>
<path d="M1540 7495 c0 -5 5 -17 10 -25 5 -8 10 -10 10 -5 0 6 -5 17 -10 25
-5 8 -10 11 -10 5z"/>
<path d="M1790 7496 c0 -2 8 -10 18 -17 15 -13 16 -12 3 4 -13 16 -21 21 -21
13z"/>
<path d="M7497 7479 c4 -13 8 -18 11 -10 2 7 -1 18 -6 23 -8 8 -9 4 -5 -13z"/>
<path d="M7806 7485 c-9 -26 -7 -32 5 -12 6 10 9 21 6 23 -2 3 -7 -2 -11 -11z"/>
<path d="M1439 7488 c-6 -21 -5 -37 2 -32 5 3 7 9 4 14 -3 4 1 11 7 13 10 4
10 6 1 6 -7 1 -13 0 -14 -1z"/>
<path d="M1739 7488 c-5 -15 -4 -50 1 -53 3 -2 6 9 6 26 0 24 -3 37 -7 27z"/>
<path d="M1900 7486 c0 -2 7 -7 16 -10 8 -3 12 -2 9 4 -6 10 -25 14 -25 6z"/>
<path d="M7910 7470 c-6 -11 -8 -20 -6 -20 3 0 10 9 16 20 6 11 8 20 6 20 -3
0 -10 -9 -16 -20z"/>
<path d="M1050 7464 c0 -20 27 -37 36 -23 4 7 3 9 -4 5 -6 -3 -15 2 -21 11 -6
10 -11 13 -11 7z"/>
<path d="M1290 7460 c-9 -6 -10 -10 -3 -10 6 0 15 5 18 10 8 12 4 12 -15 0z"/>
<path d="M7516 7455 c-9 -26 -7 -32 5 -12 6 10 9 21 6 23 -2 3 -7 -2 -11 -11z"/>
<path d="M7666 7462 c-3 -4 4 -9 15 -9 23 -2 25 3 4 10 -8 4 -16 3 -19 -1z"/>
<path d="M1235 7451 c-3 -5 -2 -12 3 -15 5 -3 9 1 9 9 0 17 -3 19 -12 6z"/>
<path d="M7821 7457 c2 -1 13 -9 24 -17 19 -14 19 -14 6 3 -7 9 -18 17 -24 17
-6 0 -8 -1 -6 -3z"/>
<path d="M7870 7439 c0 -5 5 -7 10 -4 6 3 10 8 10 11 0 2 -4 4 -10 4 -5 0 -10
-5 -10 -11z"/>
<path d="M4210 6830 c-9 -6 -10 -10 -3 -10 6 0 15 5 18 10 8 12 4 12 -15 0z"/>
<path d="M4735 4580 c3 -5 8 -10 11 -10 2 0 4 5 4 10 0 6 -5 10 -11 10 -5 0
-7 -4 -4 -10z"/>
<path d="M1734 4572 c3 -5 0 -13 -6 -15 -9 -4 -10 -6 -1 -6 17 -1 25 16 12 25
-7 4 -9 3 -5 -4z"/>
<path d="M1101 4561 c-7 -5 1 -8 19 -8 16 0 30 3 30 7 0 9 -34 10 -49 1z"/>
<path d="M1844 4554 c-18 -14 -18 -15 4 -4 12 6 22 13 22 15 0 8 -5 6 -26 -11z"/>
<path d="M4110 4562 c0 -4 10 -9 22 -9 18 -2 20 0 8 7 -18 12 -30 13 -30 2z"/>
<path d="M1400 4556 c0 -2 7 -7 16 -10 8 -3 12 -2 9 4 -6 10 -25 14 -25 6z"/>
<path d="M1633 4545 c0 -8 4 -12 9 -9 5 3 6 10 3 15 -9 13 -12 11 -12 -6z"/>
<path d="M1756 4552 c-3 -5 1 -9 9 -9 8 0 12 4 9 9 -3 4 -7 8 -9 8 -2 0 -6 -4
-9 -8z"/>
<path d="M4281 4553 c-1 -17 16 -25 25 -12 4 7 3 9 -4 5 -5 -3 -13 0 -15 6 -4
9 -6 10 -6 1z"/>
<path d="M4413 4545 c0 -8 4 -12 9 -9 5 3 6 10 3 15 -9 13 -12 11 -12 -6z"/>
<path d="M4474 4548 c1 -7 7 -22 13 -33 5 -11 8 -27 6 -35 -4 -13 -3 -13 6 -1
6 10 6 21 -2 35 -6 12 -11 24 -12 28 0 3 -3 9 -7 13 -3 4 -5 1 -4 -7z"/>
<path d="M4735 4551 c-3 -5 0 -13 6 -17 8 -5 9 -3 4 6 -6 10 -4 12 9 7 10 -4
15 -3 11 3 -8 13 -22 13 -30 1z"/>
<path d="M1268 4543 c7 -3 16 -2 19 1 4 3 -2 6 -13 5 -11 0 -14 -3 -6 -6z"/>
<path d="M1370 4539 c0 -5 5 -7 10 -4 6 3 10 8 10 11 0 2 -4 4 -10 4 -5 0 -10
-5 -10 -11z"/>
<path d="M1563 4531 c0 -11 5 -18 9 -15 4 3 5 11 1 19 -7 21 -12 19 -10 -4z"/>
<path d="M1673 4534 c14 -17 15 -23 5 -27 -9 -4 -9 -6 -1 -6 22 -2 23 16 0 35
l-22 19 18 -21z"/>
<path d="M1875 4540 c3 -5 8 -10 11 -10 2 0 4 5 4 10 0 6 -5 10 -11 10 -5 0
-7 -4 -4 -10z"/>
<path d="M4075 4523 c-10 -16 -14 -25 -10 -21 5 4 14 3 21 -3 13 -10 32 6 20
18 -3 4 -6 1 -6 -6 0 -7 -4 -10 -10 -6 -5 3 -7 12 -4 20 4 8 11 12 17 8 6 -3
7 -1 3 5 -10 16 -11 16 -31 -15z"/>
<path d="M4353 4525 c0 -30 6 -28 12 4 2 11 0 21 -4 21 -5 0 -8 -11 -8 -25z"/>
<path d="M4868 4543 c6 -2 18 -2 25 0 6 3 1 5 -13 5 -14 0 -19 -2 -12 -5z"/>
<path d="M1110 4530 c0 -5 5 -10 10 -10 6 0 10 5 10 10 0 6 -4 10 -10 10 -5 0
-10 -4 -10 -10z"/>
<path d="M1150 4525 c0 -8 4 -15 10 -15 5 0 7 7 4 15 -4 8 -8 15 -10 15 -2 0
-4 -7 -4 -15z"/>
<path d="M1299 4538 c-5 -19 -8 -50 -4 -46 7 7 15 48 9 48 -2 0 -4 -1 -5 -2z"/>
<path d="M4121 4524 c0 -11 3 -14 6 -6 3 7 2 16 -1 19 -3 4 -6 -2 -5 -13z"/>
<path d="M4210 4525 c-7 -9 -8 -15 -2 -15 5 0 12 7 16 15 3 8 4 15 2 15 -2 0
-9 -7 -16 -15z"/>
<path d="M4670 4536 c0 -2 7 -7 16 -10 8 -3 12 -2 9 4 -6 10 -25 14 -25 6z"/>
<path d="M1067 4516 c-4 -10 -1 -13 8 -9 8 3 12 9 9 14 -7 12 -11 11 -17 -5z"/>
<path d="M1433 4510 c5 -29 13 -33 13 -5 0 14 -4 25 -8 25 -4 0 -7 -9 -5 -20z"/>
<path d="M1476 4518 c3 -5 10 -6 15 -3 13 9 11 12 -6 12 -8 0 -12 -4 -9 -9z"/>
<path d="M4430 4522 c0 -5 7 -9 15 -9 8 0 12 4 9 9 -3 4 -9 8 -15 8 -5 0 -9
-4 -9 -8z"/>
<path d="M4729 4514 c7 -15 7 -24 -1 -32 -8 -8 -9 -12 -1 -12 18 0 22 27 7 47
-14 17 -15 17 -5 -3z"/>
<path d="M4900 4522 c0 -4 6 -16 13 -26 10 -14 14 -15 14 -4 0 7 -6 19 -14 26
-7 7 -13 9 -13 4z"/>
<path d="M7910 4521 c0 -6 4 -13 10 -16 6 -3 7 1 4 9 -7 18 -14 21 -14 7z"/>
<path d="M4806 4507 c3 -10 9 -15 12 -12 3 3 0 11 -7 18 -10 9 -11 8 -5 -6z"/>
<path d="M1088 4496 c-11 -8 -14 -17 -7 -27 7 -12 9 -11 9 3 0 9 6 18 13 21 6
2 10 7 7 10 -3 3 -13 0 -22 -7z"/>
<path d="M1125 4500 c-6 -9 -4 -11 5 -5 10 6 12 4 7 -9 -4 -9 -3 -15 2 -11 5
3 12 -1 14 -7 3 -7 6 -8 6 -2 1 5 -5 18 -12 29 -11 14 -16 15 -22 5z"/>
<path d="M1341 4505 c0 -5 3 -16 8 -23 7 -11 9 -10 14 3 4 9 3 14 -2 10 -5 -3
-12 1 -14 7 -3 7 -6 9 -6 3z"/>
<path d="M1499 4508 c-6 -20 -6 -39 0 -42 4 -3 7 6 7 20 0 20 -4 32 -7 22z"/>
<path d="M1795 4500 c-3 -6 1 -7 9 -4 18 7 21 14 7 14 -6 0 -13 -4 -16 -10z"/>
<path d="M1910 4500 c-9 -6 -10 -10 -3 -10 6 0 15 5 18 10 8 12 4 12 -15 0z"/>
<path d="M4133 4493 c-3 -7 -9 -10 -14 -7 -5 3 -6 -3 -2 -12 4 -10 2 -15 -4
-11 -5 3 -17 -3 -26 -14 -9 -10 -12 -19 -7 -19 6 0 13 7 16 15 4 8 10 12 15 9
5 -3 12 2 15 11 5 13 9 13 23 3 13 -10 14 -10 4 2 -15 16 -17 34 -4 25 5 -3
12 -2 15 3 3 5 -2 9 -10 9 -9 0 -18 -6 -21 -14z"/>
<path d="M4261 4501 c-10 -7 -7 -9 12 -8 14 1 23 5 20 10 -6 9 -15 9 -32 -2z"/>
<path d="M4686 4498 c3 -5 10 -6 15 -3 13 9 11 12 -6 12 -8 0 -12 -4 -9 -9z"/>
<path d="M1210 4490 c-8 -5 -12 -12 -9 -15 4 -3 12 1 19 10 14 17 11 19 -10 5z"/>
<path d="M1606 4487 c3 -10 9 -15 12 -12 3 3 0 11 -7 18 -10 9 -11 8 -5 -6z"/>
<path d="M4213 4492 c-7 -4 -9 -13 -4 -21 6 -9 10 -7 14 8 3 12 4 21 4 21 -1
0 -7 -4 -14 -8z"/>
<path d="M7798 4493 c7 -3 16 -2 19 1 4 3 -2 6 -13 5 -11 0 -14 -3 -6 -6z"/>
<path d="M7903 4488 c3 -10 2 -20 -3 -23 -6 -4 -10 -12 -9 -18 0 -9 2 -8 6 1
2 6 9 10 13 7 10 -6 4 35 -6 44 -4 3 -4 -2 -1 -11z"/>
<path d="M1690 4479 c0 -5 5 -7 10 -4 6 3 10 8 10 11 0 2 -4 4 -10 4 -5 0 -10
-5 -10 -11z"/>
<path d="M4050 4479 c-12 -8 -10 -9 7 -4 19 5 22 3 17 -12 -5 -14 -4 -15 4 -3
19 25 0 38 -28 19z"/>
<path d="M4590 4480 c0 -4 7 -7 15 -6 23 3 26 12 5 13 -11 1 -20 -2 -20 -7z"/>
<path d="M4800 4470 c6 -11 13 -20 16 -20 2 0 0 9 -6 20 -6 11 -13 20 -16 20
-2 0 0 -9 6 -20z"/>
<path d="M1110 4471 c0 -10 19 -25 25 -20 1 2 -3 10 -11 17 -8 7 -14 8 -14 3z"/>
<path d="M1905 4467 c-15 -12 -16 -15 -4 -22 8 -5 11 -5 7 0 -4 4 0 14 10 21
23 18 11 18 -13 1z"/>
<path d="M7790 4476 c0 -3 9 -10 20 -16 11 -6 20 -8 20 -6 0 3 -9 10 -20 16
-11 6 -20 8 -20 6z"/>
<path d="M1055 4461 c-3 -5 0 -13 5 -16 17 -11 60 -13 54 -3 -3 5 -11 8 -17 7
-25 -3 -38 1 -32 11 3 6 4 10 1 10 -3 0 -7 -4 -11 -9z"/>
<path d="M1216 4462 c-3 -5 1 -9 9 -9 8 0 12 4 9 9 -3 4 -7 8 -9 8 -2 0 -6 -4
-9 -8z"/>
<path d="M1520 4455 c-7 -9 -10 -18 -7 -21 3 -3 10 4 17 15 13 25 8 27 -10 6z"/>
<path d="M1596 4457 c3 -10 9 -15 12 -12 3 3 0 11 -7 18 -10 9 -11 8 -5 -6z"/>
<path d="M4296 4453 c-6 -14 -5 -15 5 -6 7 7 10 15 7 18 -3 3 -9 -2 -12 -12z"/>
<path d="M4351 4456 c-9 -11 -9 -16 1 -22 7 -4 10 -4 6 1 -4 4 -3 14 3 22 6 7
9 13 6 13 -2 0 -10 -6 -16 -14z"/>
<path d="M4513 4451 c0 -11 5 -18 9 -15 4 3 5 11 1 19 -7 21 -12 19 -10 -4z"/>
<path d="M4679 4457 c6 -8 7 -18 3 -22 -4 -5 -2 -5 5 -1 14 8 6 36 -9 36 -7 0
-6 -5 1 -13z"/>
<path d="M4895 4459 c-4 -6 -4 -13 -1 -16 3 -4 6 -1 6 6 0 7 5 9 12 5 7 -4 8
-3 4 4 -9 15 -13 15 -21 1z"/>
<path d="M1655 4449 c-4 -6 -5 -12 -2 -15 2 -3 7 2 10 11 7 17 1 20 -8 4z"/>
<path d="M1750 4456 c0 -2 8 -10 18 -17 15 -13 16 -12 3 4 -13 16 -21 21 -21
13z"/>
<path d="M1828 4453 c6 -2 10 -8 8 -12 -3 -4 1 -8 9 -8 11 0 12 4 4 14 -6 7
-17 13 -23 12 -7 0 -6 -2 2 -6z"/>
<path d="M4737 4447 c-3 -8 1 -14 8 -14 7 0 11 6 8 14 -3 7 -6 13 -8 13 -2 0
-5 -6 -8 -13z"/>
<path d="M4220 4446 c0 -2 9 -6 20 -9 11 -3 18 -1 14 4 -5 9 -34 13 -34 5z"/>
<path d="M4830 4442 c0 -5 7 -9 15 -9 8 0 12 4 9 9 -3 4 -9 8 -15 8 -5 0 -9
-4 -9 -8z"/>
<path d="M2326 4079 c3 -5 12 -9 21 -9 19 0 9 13 -12 16 -8 1 -13 -2 -9 -7z"/>
<path d="M4335 1820 c-3 -6 1 -7 9 -4 18 7 21 14 7 14 -6 0 -13 -4 -16 -10z"/>
<path d="M6275 1820 c-3 -5 -1 -10 4 -10 6 0 11 5 11 10 0 6 -2 10 -4 10 -3 0
-8 -4 -11 -10z"/>
<path d="M1115 1570 c-3 -5 -1 -10 4 -10 6 0 11 5 11 10 0 6 -2 10 -4 10 -3 0
-8 -4 -11 -10z"/>
<path d="M4141 1563 c7 -12 15 -20 18 -17 3 2 -3 12 -13 22 -17 16 -18 16 -5
-5z"/>
<path d="M4733 1563 c2 -12 7 -26 12 -30 4 -5 5 -2 1 5 -5 7 -1 12 11 13 14 0
15 2 3 6 -8 3 -18 11 -23 17 -4 6 -6 1 -4 -11z"/>
<path d="M7115 1569 c-4 -6 -5 -12 -2 -15 2 -3 7 2 10 11 7 17 1 20 -8 4z"/>
<path d="M1725 1560 c-3 -5 -1 -10 4 -10 6 0 11 5 11 10 0 6 -2 10 -4 10 -3 0
-8 -4 -11 -10z"/>
<path d="M4116 1557 c3 -10 9 -15 12 -12 3 3 0 11 -7 18 -10 9 -11 8 -5 -6z"/>
<path d="M7135 1560 c-4 -6 -2 -17 5 -25 8 -9 8 -15 0 -20 -13 -8 -3 -25 13
-24 9 0 8 2 -1 6 -6 2 -9 10 -5 16 12 19 12 38 0 30 -6 -4 -8 0 -4 10 7 19 2
23 -8 7z"/>
<path d="M7650 1560 c0 -5 5 -10 11 -10 5 0 7 5 4 10 -3 6 -8 10 -11 10 -2 0
-4 -4 -4 -10z"/>
<path d="M1092 1555 c4 -4 0 -13 -9 -20 -13 -10 -14 -13 -2 -20 8 -5 11 -5 7
0 -4 4 0 13 9 20 13 10 14 13 2 20 -8 5 -11 5 -7 0z"/>
<path d="M1835 1550 c-3 -6 1 -7 9 -4 18 7 21 14 7 14 -6 0 -13 -4 -16 -10z"/>
<path d="M4093 1553 c4 -6 0 -13 -8 -17 -18 -6 -20 -26 -3 -26 6 0 8 3 5 7 -4
3 1 11 10 18 13 9 13 14 3 20 -8 5 -11 4 -7 -2z"/>
<path d="M4267 1549 c7 -7 15 -10 18 -7 3 3 -2 9 -12 12 -14 6 -15 5 -6 -5z"/>
<path d="M4390 1550 c-9 -6 -10 -10 -3 -10 6 0 15 5 18 10 8 12 4 12 -15 0z"/>
<path d="M4475 1549 c-4 -6 -5 -12 -2 -15 2 -3 7 2 10 11 7 17 1 20 -8 4z"/>
<path d="M7876 1547 c3 -10 9 -15 12 -12 3 3 0 11 -7 18 -10 9 -11 8 -5 -6z"/>
<path d="M1119 1532 c-13 -15 -12 -16 4 -3 15 12 17 11 17 -7 0 -15 -5 -19
-19 -15 -10 3 -22 -1 -26 -7 -5 -9 -1 -10 16 -6 23 7 23 7 5 -8 -11 -9 -15
-16 -9 -16 15 0 43 34 43 53 0 24 -16 29 -31 9z"/>
<path d="M1559 1533 c-13 -17 -13 -17 6 -3 11 8 22 16 24 17 2 2 0 3 -6 3 -6
0 -17 -8 -24 -17z"/>
<path d="M4216 1533 c-6 -14 -5 -15 5 -6 7 7 10 15 7 18 -3 3 -9 -2 -12 -12z"/>
<path d="M4354 1542 c3 -5 2 -12 -4 -14 -5 -2 -6 -9 -1 -16 6 -10 10 -9 14 7
3 12 0 24 -5 28 -6 3 -8 1 -4 -5z"/>
<path d="M4563 1531 c0 -11 5 -18 9 -15 4 3 5 11 1 19 -7 21 -12 19 -10 -4z"/>
<path d="M4676 1542 c-3 -5 1 -9 9 -9 8 0 12 4 9 9 -3 4 -7 8 -9 8 -2 0 -6 -4
-9 -8z"/>
<path d="M7080 1539 c-13 -9 -12 -10 3 -5 11 3 17 0 17 -9 0 -18 16 -20 26 -2
4 6 4 9 -1 5 -4 -4 -13 -1 -19 7 -8 11 -15 12 -26 4z"/>
<path d="M7293 1535 c0 -8 4 -12 9 -9 5 3 6 10 3 15 -9 13 -12 11 -12 -6z"/>
<path d="M7563 1531 c0 -11 5 -18 9 -15 4 3 5 11 1 19 -7 21 -12 19 -10 -4z"/>
<path d="M7615 1540 c3 -5 8 -10 11 -10 2 0 4 5 4 10 0 6 -5 10 -11 10 -5 0
-7 -4 -4 -10z"/>
<path d="M7814 1539 c-4 -7 -3 -9 4 -5 5 3 13 0 15 -6 4 -9 6 -10 6 -1 1 17
-16 25 -25 12z"/>
<path d="M1902 1520 c7 -11 17 -20 22 -20 5 0 1 9 -9 20 -10 11 -20 20 -22 20
-2 0 2 -9 9 -20z"/>
<path d="M4297 1527 c-3 -8 -2 -20 3 -26 5 -9 8 -4 8 13 0 29 -3 32 -11 13z"/>
<path d="M4805 1530 c-3 -6 1 -7 9 -4 18 7 21 14 7 14 -6 0 -13 -4 -16 -10z"/>
<path d="M7421 1528 c-1 -20 14 -24 25 -6 4 6 3 8 -4 4 -5 -3 -13 0 -15 6 -3
8 -6 6 -6 -4z"/>
<path d="M7675 1530 c3 -5 8 -10 11 -10 2 0 4 5 4 10 0 6 -5 10 -11 10 -5 0
-7 -4 -4 -10z"/>
<path d="M1301 1514 c7 -8 6 -14 -1 -17 -6 -3 -6 -5 1 -3 17 3 20 33 3 33 -10
0 -11 -4 -3 -13z"/>
<path d="M4130 1521 c0 -5 -9 -11 -21 -14 -12 -3 -18 -10 -14 -16 3 -7 -3 -11
-15 -11 -13 0 -19 4 -14 12 5 7 3 8 -5 3 -18 -10 2 -28 25 -23 11 2 18 9 17
15 -1 6 9 14 22 17 24 6 35 26 15 26 -5 0 -10 -4 -10 -9z"/>
<path d="M4720 1520 c0 -5 5 -10 11 -10 5 0 7 5 4 10 -3 6 -8 10 -11 10 -2 0
-4 -4 -4 -10z"/>
<path d="M7737 1515 c-4 -8 -3 -16 1 -19 4 -3 9 4 9 15 2 23 -3 25 -10 4z"/>
<path d="M1493 1505 c0 -8 4 -12 9 -9 5 3 6 10 3 15 -9 13 -12 11 -12 -6z"/>
<path d="M1721 1513 c-1 -17 16 -25 25 -12 4 7 3 9 -4 5 -5 -3 -13 0 -15 6 -4
9 -6 10 -6 1z"/>
<path d="M7076 1507 c3 -10 9 -15 12 -12 3 3 0 11 -7 18 -10 9 -11 8 -5 -6z"/>
<path d="M7210 1511 c0 -6 4 -13 10 -16 6 -3 7 1 4 9 -7 18 -14 21 -14 7z"/>
<path d="M7348 1513 c7 -3 16 -2 19 1 4 3 -2 6 -13 5 -11 0 -14 -3 -6 -6z"/>
<path d="M1072 1479 c6 -16 12 -28 14 -26 5 5 -13 57 -20 57 -3 0 0 -14 6 -31z"/>
<path d="M1438 1503 c7 -3 16 -2 19 1 4 3 -2 6 -13 5 -11 0 -14 -3 -6 -6z"/>
<path d="M1650 1499 c0 -5 5 -7 10 -4 6 3 10 8 10 11 0 2 -4 4 -10 4 -5 0 -10
-5 -10 -11z"/>
<path d="M1796 1501 c-3 -5 1 -11 9 -14 9 -4 12 -1 8 9 -6 16 -10 17 -17 5z"/>
<path d="M4190 1506 c0 -2 7 -7 16 -10 8 -3 12 -2 9 4 -6 10 -25 14 -25 6z"/>
<path d="M4654 1498 c-4 -7 -4 -10 1 -6 4 4 16 3 26 -3 11 -5 19 -7 19 -5 0 3
-9 10 -19 16 -15 7 -22 7 -27 -2z"/>
<path d="M7493 1489 c-2 -23 3 -25 10 -4 4 8 3 16 -1 19 -4 3 -9 -4 -9 -15z"/>
<path d="M7655 1500 c-2 -3 5 -6 15 -7 11 -1 22 2 24 5 3 4 -4 8 -15 8 -11 0
-22 -3 -24 -6z"/>
<path d="M7796 1501 c-3 -5 1 -11 9 -14 9 -4 12 -1 8 9 -6 16 -10 17 -17 5z"/>
<path d="M7900 1504 c0 -13 18 -39 24 -34 2 3 -2 14 -10 24 -8 11 -14 16 -14
10z"/>
<path d="M1033 1485 c0 -8 4 -12 9 -9 4 3 8 9 8 15 0 5 -4 9 -8 9 -5 0 -9 -7
-9 -15z"/>
<path d="M1348 1493 c7 -3 16 -2 19 1 4 3 -2 6 -13 5 -11 0 -14 -3 -6 -6z"/>
<path d="M1595 1490 c-3 -6 1 -7 9 -4 18 7 21 14 7 14 -6 0 -13 -4 -16 -10z"/>
<path d="M1687 1485 c-4 -8 -3 -16 1 -19 4 -3 9 4 9 15 2 23 -3 25 -10 4z"/>
<path d="M7060 1495 c0 -5 5 -17 10 -25 5 -8 10 -10 10 -5 0 6 -5 17 -10 25
-5 8 -10 11 -10 5z"/>
<path d="M7100 1481 c-12 -23 0 -34 26 -24 13 5 15 3 9 -7 -5 -9 -4 -11 4 -6
17 11 2 28 -20 21 -14 -5 -17 -3 -13 9 3 9 11 13 17 9 6 -3 7 -1 3 5 -10 16
-14 15 -26 -7z"/>
<path d="M7605 1490 c-16 -7 -17 -9 -3 -9 9 -1 20 4 23 9 7 11 7 11 -20 0z"/>
<path d="M1141 1476 c-9 -11 -9 -16 0 -22 7 -4 9 -3 5 4 -3 6 2 15 11 21 10 6
13 11 7 11 -6 0 -17 -6 -23 -14z"/>
<path d="M1530 1481 c0 -6 4 -12 8 -15 5 -3 9 1 9 9 0 8 -4 15 -9 15 -4 0 -8
-4 -8 -9z"/>
<path d="M1912 1485 c4 -4 0 -13 -9 -20 -13 -10 -14 -13 -2 -20 8 -5 11 -5 7
0 -4 4 0 13 9 20 13 10 14 13 2 20 -8 5 -11 5 -7 0z"/>
<path d="M4120 1475 c-7 -9 -11 -17 -9 -20 3 -2 10 5 17 15 14 24 10 26 -8 5z"/>
<path d="M4601 1476 c-9 -11 -9 -16 0 -22 7 -4 9 -3 5 4 -3 5 0 12 6 15 7 2
10 7 7 11 -3 4 -12 0 -18 -8z"/>
<path d="M4800 1470 c6 -11 13 -20 16 -20 2 0 0 9 -6 20 -6 11 -13 20 -16 20
-2 0 0 -9 6 -20z"/>
<path d="M4910 1479 c0 -5 5 -7 10 -4 6 3 10 8 10 11 0 2 -4 4 -10 4 -5 0 -10
-5 -10 -11z"/>
<path d="M4540 1470 c-9 -6 -10 -10 -3 -10 6 0 15 5 18 10 8 12 4 12 -15 0z"/>
<path d="M4735 1460 c2 -27 10 -33 12 -10 1 11 -2 22 -6 24 -4 3 -7 -4 -6 -14z"/>
<path d="M1060 1450 c6 -11 13 -20 16 -20 2 0 0 9 -6 20 -6 11 -13 20 -16 20
-2 0 0 -9 6 -20z"/>
<path d="M1736 1453 c-6 -14 -5 -15 5 -6 7 7 10 15 7 18 -3 3 -9 -2 -12 -12z"/>
<path d="M1806 1458 c3 -5 10 -6 15 -3 13 9 11 12 -6 12 -8 0 -12 -4 -9 -9z"/>
<path d="M4135 1459 c-4 -6 -5 -12 -2 -15 2 -3 7 2 10 11 7 17 1 20 -8 4z"/>
<path d="M4438 1463 c7 -3 16 -2 19 1 4 3 -2 6 -13 5 -11 0 -14 -3 -6 -6z"/>
<path d="M4675 1460 c-3 -6 1 -7 9 -4 18 7 21 14 7 14 -6 0 -13 -4 -16 -10z"/>
<path d="M7204 1462 c4 -3 14 -7 22 -8 9 -1 13 0 10 4 -4 3 -14 7 -22 8 -9 1
-13 0 -10 -4z"/>
<path d="M7340 1465 c0 -5 5 -17 10 -25 5 -8 10 -10 10 -5 0 6 -5 17 -10 25
-5 8 -10 11 -10 5z"/>
<path d="M7806 1458 c3 -5 10 -6 15 -3 13 9 11 12 -6 12 -8 0 -12 -4 -9 -9z"/>
<path d="M7893 1455 c0 -8 4 -12 9 -9 5 3 6 10 3 15 -9 13 -12 11 -12 -6z"/>
<path d="M1231 1444 c0 -11 3 -14 6 -6 3 7 2 16 -1 19 -3 4 -6 -2 -5 -13z"/>
<path d="M1595 1450 c3 -5 8 -10 11 -10 2 0 4 5 4 10 0 6 -5 10 -11 10 -5 0
-7 -4 -4 -10z"/>
<path d="M1656 1443 c-6 -14 -5 -15 5 -6 7 7 10 15 7 18 -3 3 -9 -2 -12 -12z"/>
<path d="M4351 1444 c0 -11 3 -14 6 -6 3 7 2 16 -1 19 -3 4 -6 -2 -5 -13z"/>
<path d="M4867 1441 c-10 -14 -10 -14 4 -4 9 7 18 10 21 7 3 -3 8 -1 12 4 9
16 -24 9 -37 -7z"/>
<path d="M7435 1451 c-3 -5 -2 -12 3 -15 5 -3 9 1 9 9 0 17 -3 19 -12 6z"/>
<path d="M7526 1443 c-6 -14 -5 -15 5 -6 7 7 10 15 7 18 -3 3 -9 -2 -12 -12z"/>
<path d="M7675 1451 c-3 -5 0 -13 6 -17 7 -4 9 -3 5 4 -3 5 0 13 6 15 9 4 10
6 1 6 -6 1 -14 -3 -18 -8z"/>
<path d="M1108 1443 c7 -3 16 -2 19 1 4 3 -2 6 -13 5 -11 0 -14 -3 -6 -6z"/>
<path d="M1835 1440 c3 -5 8 -10 11 -10 2 0 4 5 4 10 0 6 -5 10 -11 10 -5 0
-7 -4 -4 -10z"/>
<path d="M4076 1442 c-3 -5 1 -9 9 -9 8 0 15 4 15 9 0 4 -4 8 -9 8 -6 0 -12
-4 -15 -8z"/>
<path d="M4835 1440 c3 -5 8 -10 11 -10 2 0 4 5 4 10 0 6 -5 10 -11 10 -5 0
-7 -4 -4 -10z"/>
<path d="M7050 1445 c0 -7 30 -13 34 -7 3 4 -4 9 -15 9 -10 1 -19 0 -19 -2z"/>
<path d="M7856 1442 c-3 -5 1 -9 9 -9 8 0 12 4 9 9 -3 4 -7 8 -9 8 -2 0 -6 -4
-9 -8z"/>
</g>
</svg>
